<?xml version="1.0" encoding="UTF-8"?>
<svg width="1087px" height="438px" viewBox="0 0 1087 438" version="1.1" xmlns="http://www.w3.org/2000/svg" xmlns:xlink="http://www.w3.org/1999/xlink">
    <!-- Generator: Sketch 56.3 (81716) - https://sketch.com -->
    <title>illustration</title>
    <desc>Created with Sketch.</desc>
    <g id="DA" stroke="none" stroke-width="1" fill="none" fill-rule="evenodd">
        <g id="01-Home" transform="translate(-191.000000, -2069.000000)">
            <g id="CONTENT" transform="translate(0.000000, 801.000000)">
                <g id="fact" transform="translate(175.000000, 997.000000)">
                    <g id="illustration" transform="translate(0.000000, 176.000000)">
                        <polygon id="Fill-3" fill="#44D19D" style="mix-blend-mode: multiply;" transform="translate(559.500000, 341.534274) rotate(-345.000000) translate(-559.500000, -341.534274) " points="1081 190.267889 60.1884896 555.034274 38 492.800659 1058.81151 128.034274"></polygon>
                        <polygon id="Fill-8-Copy" fill="#FF8C50" style="mix-blend-mode: multiply;" transform="translate(545.500000, 447.578899) rotate(-27.000000) translate(-545.500000, -447.578899) " points="592.603783 518.359623 507.103783 523.578899 460 452.797314 498.397956 376.796177 583.89649 371.578899 631 442.358762"></polygon>
                        <polygon id="Fill-6" fill="#FF5F44" style="mix-blend-mode: multiply;" transform="translate(812.000000, 196.500000) rotate(-110.000000) translate(-812.000000, -196.500000) " points="898 248.730839 835.860099 294 726 144.269161 788.139901 99"></polygon>
                        <path d="M1014.07498,234.406915 C958.813344,255.938253 905.192872,251.237514 894.308822,223.907987 C883.424772,196.578459 919.399307,156.968174 974.659399,135.436835 C1029.92103,113.905497 1083.5415,118.606236 1094.42555,145.935763 C1105.3096,173.266815 1069.33507,212.875576 1014.07498,234.406915 Z" id="Fill-12" fill="#C392FF" style="mix-blend-mode: multiply;" transform="translate(994.367188, 184.921875) rotate(71.000000) translate(-994.367188, -184.921875) "></path>
                        <polygon id="Rectangle" fill="#7292F7" style="mix-blend-mode: multiply;" transform="translate(150.500000, 298.147750) rotate(-236.000000) translate(-150.500000, -298.147750) " points="69 216.64775 192.150019 256.497731 232 379.64775 108.849981 339.79777"></polygon>
                        <circle id="Oval" fill="#FEDA3C" style="mix-blend-mode: multiply;" cx="923" cy="218" r="65"></circle>
                    </g>
                </g>
            </g>
        </g>
    </g>
</svg>