<svg xmlns="http://www.w3.org/2000/svg" viewBox="0 0 1050.95 1186.68"><defs><style>.cls-1{fill:#1e1e1c;}.cls-2{fill:#fff;}.cls-3{fill:#010101;}</style></defs><g id="Layer_2" data-name="Layer 2"><g id="Layer_1-2" data-name="Layer 1"><path class="cls-1" d="M496.16,673.12v.19H824.9v-.19Z"/><path class="cls-2" d="M1051,337H878.39L766.27,1.9l-.79.28V0H250.4V354.86h.23l-.23.7,196.08,62.11-.14.33L349.57,673.12H0V1028l955.72,158.46.46.09a8.8,8.8,0,0,0,1.53.14,9.23,9.23,0,0,0,8.86-11.79.52.52,0,0,0-.05-.27,1.84,1.84,0,0,0-.14-.51L845.82,745.26l-.09-.33L1051,692.05l0-.19h0ZM765.48,58l93.38,279H765.48ZM269,18.55h478V336.31H269Zm40.78,336.31H470.27l-17.21,45.42Zm154.33,68.75.14-.33,6.44-17.07.14-.32,6.82-18.05V673.12H369.43ZM18.55,691.68h787.8v317.75H18.55ZM113.14,1028H811.45L933.17,1163.9ZM937.9,1141.36l-113-126.18V739.41l2.88,10.16.09.33ZM840.72,727.12l-9.92-35.26H977.38Zm191.67-53.81H496.16V355.51h536.23Z"/><rect class="cls-3" x="18.55" y="691.68" width="787.79" height="317.75"/><polygon class="cls-3" points="1032.39 355.51 1032.39 673.31 825.6 673.31 825.41 672.71 823.93 673.13 496.16 673.13 496.16 355.51 1032.39 355.51"/><rect class="cls-3" x="268.95" y="18.55" width="477.97" height="317.75"/><polygon class="cls-1" points="825.6 673.31 823.28 673.31 823.93 673.13 825.41 672.71 825.6 673.31"/><path class="cls-1" d="M966.62,1174.89h0a.52.52,0,0,0-.05-.27Z"/><path class="cls-2" d="M453.6,191.58c26.81-7.23,45.55-27.36,45.55-57.84,0-35.21-27.37-60.91-70.14-60.91h-73.2v204h44.72V180.41l56.69,96.43h50.6ZM429,159.76H400.53V110.55H429c14.24,0,25.42,9,25.42,23.19C454.43,149.7,444.64,159.76,429,159.76Z"/><path class="cls-2" d="M581.86,239.09v-43H650.6V158.33H581.86V110.55h74V72.83H537.14v204H660.07V239.09Z"/><polygon class="cls-2" points="493.03 325.67 492.42 325.67 492.52 325.48 493.03 325.67"/><path class="cls-2" d="M713.64,410.69l-52,99.5a44,44,0,0,0-3.61,9.19,69.43,69.43,0,0,0-3.9-9.19l-55.06-99.5H555.19v204H599.9V497.07c0-6.73-.83-13.18-.83-14a43.19,43.19,0,0,0,3.62,7.84l46.38,83.54h17.07L711.7,490.9a69.56,69.56,0,0,0,3.61-7.84,95.84,95.84,0,0,0-.83,14V614.7H759.2v-204Z"/><path class="cls-2" d="M896.64,407.35c-63.18,0-105.34,45.83-105.34,104.51C791.3,570,832.91,618,896.09,618s105.34-47.22,105.34-106.18C1001.43,451.24,960.33,407.35,896.64,407.35Zm-.55,171.59c-31.87,0-58.68-29.64-58.68-67.08,0-34.09,24.3-65.4,59.23-65.4,35.49,0,58.68,29.64,58.68,65.4C955.32,546.24,933,578.94,896.09,578.94Z"/><path class="cls-2" d="M86.37,748.64v37.72h40.5V952.65h44.72V786.36H211V748.64Z"/><path class="cls-2" d="M241.72,748.64v204h44.67v-204Z"/><path class="cls-2" d="M423.89,745.3c-63.14,0-105.35,45.83-105.35,104.51C318.54,907.94,360.2,956,423.33,956s105.34-47.22,105.34-106.18C528.67,789.19,487.62,745.3,423.89,745.3Zm-.56,171.59c-31.87,0-58.68-29.64-58.68-67.08,0-34.09,24.31-65.4,59.24-65.4,35.48,0,58.68,29.64,58.68,65.4C482.57,884.19,460.21,916.89,423.33,916.89Z"/><path class="cls-2" d="M693.81,748.64V864.33c0,5.06.56,10.07.56,10.35a42.17,42.17,0,0,0-5-8.4l-90-117.64h-38.6v204h44.72V835.85c0-4.78-.55-9.79-.55-10.07a92.79,92.79,0,0,0,5,8.12l90,118.75h38.59v-204Z"/></g></g></svg>