<svg width="80" height="90" viewBox="0 0 80 90" fill="none" xmlns="http://www.w3.org/2000/svg">
<path d="M37.6431 51.0835L62.5919 51.1055V51.0835H37.6431Z" fill="#1D1D1B"/>
<path d="M79.7438 25.5637H66.6545L58.1332 0.153734L58.0674 0.175695V0H18.9751V26.9253H18.9971L18.9751 26.9693L33.8433 31.6911V31.713L26.5081 51.0615H0V77.9868L72.5183 90H72.5622C72.6061 90 72.6501 90 72.672 90C72.8477 90 73.0015 89.9341 73.1332 89.8243C73.3309 89.6486 73.4187 89.3631 73.3309 89.0996V89.0776C73.3309 89.0556 73.3309 89.0556 73.3309 89.0337L64.1728 56.4861V56.4641L79.7438 52.4451V52.4231V25.5637ZM58.0893 4.39239L65.183 25.5637H58.0893V4.39239ZM20.4026 1.40556H56.6618V25.5198H20.4026V1.40556ZM23.4993 26.9253H35.6881L34.3924 30.3734L23.4993 26.9253ZM35.205 32.1523V32.1303L35.6881 30.8346V30.8126L36.2152 29.451V51.1054H28.0015L35.205 32.1523ZM1.40556 52.489H61.1859V76.6032H1.40556V52.489ZM8.58712 78.0088H61.5813L70.8272 88.3309L8.58712 78.0088ZM71.1567 86.5959L62.5915 77.0205V56.0908L62.8111 56.8594V56.8814L71.1567 86.5959ZM63.7994 55.1684L63.0308 52.489H74.1435L63.7994 55.1684ZM78.3382 51.0835H37.6428V26.9693H78.3382V51.0835Z" fill="black"/>
<path d="M61.1859 52.489H1.40552V76.6032H61.1859V52.489Z" fill="white"/>
<path d="M78.3386 26.9692V51.0834H62.6358V51.0395L62.526 51.0834H37.6431V26.9692H78.3386Z" fill="white"/>
<path d="M56.662 1.40552H20.4028V25.5197H56.662V1.40552Z" fill="white"/>
<path d="M62.6357 51.0835H62.46H62.5259L62.6357 51.0396V51.0835Z" fill="#1D1D1B"/>
<path d="M34.4142 14.5168C36.4566 13.9678 37.8622 12.4305 37.8622 10.1245C37.8622 7.4451 35.7758 5.51245 32.5474 5.51245H26.991V20.9956H30.3732V13.6603L34.6997 20.9956H38.543L34.4142 14.5168ZM32.5474 12.101H30.3951V8.3675H32.5474C33.6235 8.3675 34.48 9.04832 34.48 10.1245C34.48 11.3324 33.7333 12.101 32.5474 12.101Z" fill="black"/>
<path d="M44.1436 18.1181V14.8677H49.3706V12.0127H44.1436V8.36701H49.7659V5.51196H40.7615V20.9951H50.0953V18.1401H44.1436V18.1181Z" fill="black"/>
<path d="M54.1581 31.1643L50.2049 38.7192C50.0512 39.0047 49.9194 39.3781 49.9194 39.422C49.8974 39.3561 49.7657 39.0047 49.6339 38.7192L45.4611 31.1643H42.1229V46.6475H45.5051V37.7309C45.5051 37.2258 45.4392 36.7207 45.4392 36.6768C45.4611 36.7646 45.5929 37.0501 45.7247 37.2697L49.2386 43.6167H50.5343L53.9824 37.2697C54.1141 37.0281 54.2459 36.7426 54.2679 36.6768C54.2459 36.7426 54.202 37.2258 54.202 37.7309V46.6475H57.5841V31.1643H54.1581Z" fill="black"/>
<path d="M68.0381 30.9006C63.2504 30.9006 60.044 34.3706 60.044 38.8289C60.044 43.2432 63.2065 46.8889 67.9942 46.8889C72.7819 46.8889 75.9884 43.3091 75.9884 38.8289C75.9884 34.2389 72.8698 30.9006 68.0381 30.9006ZM67.9942 43.9241C65.5784 43.9241 63.536 41.6839 63.536 38.8289C63.536 36.2374 65.3808 33.8655 68.0381 33.8655C70.7395 33.8655 72.4964 36.1056 72.4964 38.8289C72.4964 41.4424 70.7834 43.9241 67.9942 43.9241Z" fill="black"/>
<path d="M6.54425 56.8159V59.671H9.61892V72.2991H13.0011V59.671H15.9879V56.8159H6.54425Z" fill="black"/>
<path d="M18.3381 56.8159V72.2991H21.7203V56.8159H18.3381Z" fill="black"/>
<path d="M32.1734 56.5522C27.3857 56.5522 24.1793 60.0222 24.1793 64.4805C24.1793 68.8949 27.3418 72.5405 32.1295 72.5405C36.9172 72.5405 40.1236 68.9607 40.1236 64.4805C40.1236 59.8905 37.005 56.5522 32.1734 56.5522ZM32.1295 69.5757C29.7137 69.5757 27.6712 67.3356 27.6712 64.4805C27.6712 61.889 29.516 59.5171 32.1734 59.5171C34.8747 59.5171 36.6317 61.7572 36.6317 64.4805C36.6097 67.094 34.9186 69.5757 32.1295 69.5757Z" fill="black"/>
<path d="M52.6426 56.8159V65.6007C52.6426 65.974 52.6865 66.3694 52.6865 66.3913C52.6646 66.3254 52.5108 66.0399 52.3132 65.7544L45.483 56.8379H42.5621V72.321H45.9442V63.4484C45.9442 63.0751 45.9003 62.7017 45.9003 62.6797C45.9222 62.7237 46.0979 63.0092 46.2736 63.2947L53.1038 72.2991H56.0247V56.8159H52.6426Z" fill="black"/>
</svg>
