<svg width="187" height="65" viewBox="0 0 187 65" fill="none" xmlns="http://www.w3.org/2000/svg">
<path d="M107.181 13H148.262C151.425 13.1974 154.515 14.5018 156.794 16.7162C159.475 19.2642 160.987 22.9611 160.923 26.6543C160.893 31.2086 160.965 35.7625 160.889 40.3167C160.631 46.5654 155.429 52.1474 149.195 52.7842C145.779 53.0458 142.343 52.8559 138.919 52.8984C138.081 52.9587 137.106 52.7008 136.405 53.2924C133.451 55.4119 130.505 57.5392 127.54 59.6399H127.514C124.628 57.6039 121.761 55.5407 118.902 53.4711C118.523 53.2275 118.147 52.8906 117.669 52.9167C114.143 52.8603 110.609 52.9773 107.082 52.868C102.062 52.6737 97.3563 49.3408 95.4724 44.6888C93.8757 41.0411 94.5353 36.9798 94.395 33.1237C94.5203 29.6843 94.0384 26.1656 94.9105 22.7981C96.348 17.3378 101.539 13.1931 107.181 13ZM106.484 24.4705C104.459 26.0592 103.58 28.695 103.556 31.2009C103.492 35.1333 103.542 39.0653 103.53 43.0015C104.706 43.0165 105.877 43.0127 107.053 42.9934C107.087 38.6825 106.992 34.3672 107.098 30.0556C107.296 27.6969 109.662 25.9452 111.974 26.408C114.136 26.6243 115.682 28.7398 115.573 30.8477C115.587 34.8865 115.584 38.9249 115.569 42.9589C116.741 43.0352 117.92 43.0198 119.095 42.9824C119.118 38.8078 119.057 34.6323 119.122 30.4579C119.092 28.0422 121.412 26.0062 123.808 26.3854C125.886 26.4799 127.528 28.395 127.558 30.4273C127.593 34.6139 127.558 38.8039 127.574 42.9934C128.734 43.0127 129.898 43.0127 131.062 43.0018C131.054 39.0847 131.085 35.1639 131.047 31.2433C131.04 29.1883 130.483 27.0687 129.14 25.4718C126.205 21.8849 120.016 22.1656 117.324 25.9192C114.882 22.5783 109.719 21.9522 106.484 24.4705ZM138.498 23.5298C134.524 25.0087 131.79 29.2214 132.041 33.4571C131.961 37.9546 135.351 42.1708 139.712 43.1798C142.544 43.7557 145.71 43.2857 147.955 41.3593C150.139 39.638 151.307 36.9873 151.841 34.3182C150.628 34.1509 149.422 33.8554 148.19 33.8479C147.92 35.5885 147.238 37.3629 145.865 38.5308C143.738 40.4572 140.162 40.4533 138.043 38.519C134.801 35.7889 134.876 30.0747 138.255 27.4849C140.572 25.5244 144.323 25.9265 146.301 28.1863C143.128 29.9916 139.939 31.7771 136.746 33.5443C137.228 34.4428 137.725 35.338 138.24 36.2176C142.551 33.8402 146.878 31.4893 151.128 29.0134C150.419 27.8037 149.71 26.5632 148.668 25.6042C146.082 22.9803 141.908 22.1842 138.498 23.5298Z" fill="#0095D4"/>
<path d="M71.2194 14.6607C72.3948 14.6572 73.5704 14.6572 74.7497 14.6572C74.7497 24.2658 74.7534 33.8708 74.7497 43.4788C73.5704 43.4788 72.3948 43.4788 71.2194 43.4788C71.2155 33.8709 71.2155 24.2658 71.2194 14.6607Z" fill="white"/>
<path d="M77.1195 14.6572C78.3064 14.6572 79.4896 14.6572 80.6765 14.6607C80.6765 20.0721 80.6724 25.4868 80.6765 30.8978C82.2235 30.8899 84.0436 31.0344 85.2077 29.7944C86.8307 28.0313 87.7974 25.7865 89.1588 23.8338C90.5048 23.5907 91.9494 23.8071 93.3333 23.7352C91.4791 26.4007 90.2849 29.6614 87.6381 31.6751C89.6025 32.0201 91.4678 33.3583 91.9346 35.3797C92.5675 38.0262 92.1426 40.7828 92.2638 43.4752C91.0772 43.4788 89.8944 43.4788 88.7073 43.4752C88.6546 41.352 88.8365 39.2171 88.5786 37.1013C88.404 35.7773 87.3577 34.6284 86.004 34.4729C84.237 34.2722 82.4509 34.4201 80.6765 34.3783C80.6724 37.4117 80.6765 40.4452 80.6724 43.4751C79.4896 43.4786 78.3027 43.4786 77.1195 43.4786C77.1195 33.8709 77.1195 24.2658 77.1195 14.6572Z" fill="white"/>
<path d="M106.484 24.4705C109.719 21.9521 114.882 22.5782 117.325 25.9191C120.017 22.1649 126.206 21.8841 129.14 25.4716C130.483 27.0677 131.04 29.1875 131.048 31.2426C131.085 35.1635 131.055 39.0843 131.062 43.0013C129.898 43.0125 128.734 43.0125 127.574 42.9932C127.559 38.8033 127.593 34.6135 127.559 30.4269C127.528 28.3949 125.886 26.4795 123.809 26.3848C121.412 26.0056 119.092 28.0418 119.123 30.4575C119.058 34.6321 119.118 38.8077 119.096 42.9818C117.92 43.0197 116.741 43.0351 115.569 42.9585C115.585 38.9242 115.588 34.8858 115.573 30.8476C115.683 28.7391 114.136 26.6234 111.975 26.4071C109.662 25.945 107.296 27.6964 107.099 30.0554C106.992 34.3665 107.087 38.6817 107.053 42.9926C105.877 43.0119 104.706 43.016 103.531 43.0009C103.542 39.0648 103.492 35.1329 103.557 31.2004C103.579 28.6949 104.459 26.0592 106.484 24.4705Z" fill="white"/>
<path d="M138.498 23.5299C141.907 22.1843 146.082 22.9804 148.668 25.6043C149.71 26.5633 150.419 27.8037 151.128 29.0135C146.878 31.4893 142.551 33.8402 138.24 36.2176C137.725 35.3381 137.228 34.4429 136.746 33.5444C139.939 31.7771 143.128 29.9917 146.302 28.1864C144.323 25.9265 140.572 25.5245 138.255 27.4849C134.877 30.0748 134.801 35.7889 138.043 38.5191C140.162 40.4533 143.739 40.4571 145.865 38.5309C147.238 37.3629 147.92 35.5886 148.19 33.848C149.422 33.8555 150.628 34.1508 151.842 34.3183C151.307 36.9874 150.139 39.6381 147.955 41.3593C145.71 43.2857 142.544 43.7558 139.712 43.1798C135.351 42.1709 131.961 37.9547 132.041 33.4572C131.79 29.2214 134.524 25.0088 138.498 23.5299Z" fill="white"/>
<path d="M56.0481 23.8641C58.9223 22.9576 62.2251 23.2611 64.758 24.948C67.3707 26.6132 69.0354 29.6126 69.1224 32.703C69.2818 36.2937 69.1719 39.8847 69.202 43.4753C68.0116 43.4788 66.8172 43.4788 65.6264 43.4753C65.619 40.1348 65.6339 36.7943 65.6226 33.4495C65.615 31.6752 65.0613 29.8509 63.8139 28.5506C61.5918 26.0974 57.2996 26.0935 55.0129 28.4595C51.9719 31.5499 52.5558 37.5756 56.4653 39.6914C59.0438 41.1015 62.2706 40.3699 64.4927 38.6182C64.4849 39.9039 64.4889 41.189 64.4849 42.4709C62.2327 43.6838 59.548 44.1201 57.0415 43.5552C54.0649 42.8722 51.5094 40.6698 50.3264 37.8672C49.3897 35.6565 49.2835 33.1463 49.7991 30.8182C50.5122 27.6403 52.935 24.8687 56.0481 23.8641Z" fill="white"/>
<path d="M21.0001 23.7352C22.1679 23.7352 23.3356 23.7352 24.5075 23.7352C24.5113 27.6217 24.5075 31.5086 24.5075 35.3948C24.4923 36.5972 24.6818 37.8745 25.4517 38.8418C26.9304 40.8594 30.2938 40.9192 31.9093 39.0425C32.717 38.1627 33.0468 36.9459 33.0392 35.7699C33.0429 31.7582 33.0392 27.75 33.0392 23.7382C34.2069 23.7346 35.3751 23.7346 36.5466 23.7346C36.5504 27.6099 36.5466 31.489 36.5429 35.3639C36.5315 36.6079 36.7287 37.9313 37.5515 38.9172C39.0606 40.8735 42.3974 40.897 43.9633 38.9974C44.8468 38.0074 45.0745 36.6348 45.0556 35.3492C45.0516 31.4772 45.0516 27.6064 45.0556 23.7347C46.2235 23.7347 47.3912 23.7347 48.5631 23.7347C48.5553 27.5758 48.5742 31.4128 48.5553 35.2545C48.5438 37.6506 47.888 40.1912 46.0832 41.8748C42.9738 44.8702 37.3126 44.3845 34.7833 40.8584C32.3756 44.089 27.4043 44.817 24.1622 42.4545C22.1678 41.0252 21.2121 38.5908 21 36.2134V23.7352H21.0001Z" fill="white"/>
</svg>
