<svg width="187" height="65" viewBox="0 0 187 65" fill="none" xmlns="http://www.w3.org/2000/svg">
<path d="M6.76 43.0902C6.09183 43.0917 5.43525 42.9157 4.85733 42.5804C4.27941 42.245 3.80087 41.7623 3.47059 41.1814C3.14537 40.6047 2.98318 39.9503 3.00138 39.2885C3.01958 38.6266 3.2175 37.9821 3.57392 37.4242L10.3479 26.7867C10.6946 26.215 11.1869 25.7455 11.7744 25.4263C12.3619 25.1071 13.0236 24.9495 13.6919 24.9697C14.3597 24.9857 15.0112 25.1789 15.5799 25.5294C16.1485 25.8799 16.6138 26.3752 16.9282 26.9646C17.5597 28.1587 17.4807 29.5953 16.7244 30.7162L9.95469 41.3536C9.61139 41.8886 9.1386 42.3282 8.58014 42.6318C8.02169 42.9354 7.39563 43.093 6.76 43.0902Z" fill="#F62B54"/>
<path d="M18.3793 43.09C17.013 43.09 15.7558 42.3595 15.0956 41.1855C14.7711 40.6103 14.6093 39.9577 14.6275 39.2976C14.6457 38.6374 14.8432 37.9947 15.1989 37.4383L21.96 26.8252C22.3016 26.2455 22.7921 25.7677 23.3806 25.4414C23.9691 25.1151 24.6342 24.9522 25.3068 24.9695C26.6846 24.9997 27.9332 25.7703 28.5647 26.9759C29.1918 28.1814 29.1 29.6266 28.3207 30.7446L21.561 41.3577C21.2188 41.8904 20.7479 42.3283 20.1918 42.6311C19.6358 42.9338 19.0124 43.0916 18.3793 43.09Z" fill="#FFCC00"/>
<path d="M29.7386 43.1789C31.6647 43.1789 33.2261 41.6503 33.2261 39.7646C33.2261 37.879 31.6647 36.3503 29.7386 36.3503C27.8126 36.3503 26.2512 37.879 26.2512 39.7646C26.2512 41.6503 27.8126 43.1789 29.7386 43.1789Z" fill="#00CA72"/>
<path d="M181.244 36.5484C182.297 36.5484 182.927 37.2975 182.927 38.5246V42.7297H184.358V38.4284C184.358 36.3417 183.375 35.1319 181.527 35.1319C180.803 35.1319 179.655 35.3299 178.971 36.6603C178.812 36.2679 178.549 35.9259 178.211 35.6707C177.873 35.4155 177.473 35.2565 177.052 35.2108C176.787 35.1623 176.517 35.1464 176.248 35.1634C175.66 35.2108 174.612 35.5768 174.22 36.4063V35.2912H172.788V42.7297H174.22V38.7155C174.22 37.154 175.242 36.5484 176.265 36.5484C177.224 36.5484 177.854 37.2818 177.854 38.5088V42.7297H179.278V38.7155C179.278 37.4726 180.024 36.534 181.244 36.5484H181.244ZM167.531 41.4868C168.185 41.5012 168.817 41.24 169.275 40.7664C169.734 40.2927 169.978 39.6483 169.953 38.9867C169.953 37.4884 168.851 36.5484 167.531 36.5484C166.209 36.5484 165.108 37.4884 165.108 38.9867C165.082 39.6469 165.326 40.2899 165.783 40.762C166.239 41.2357 166.868 41.4983 167.519 41.4868H167.531ZM167.531 42.8818C165.438 42.8818 163.692 41.3361 163.692 38.9781C163.692 36.6201 165.438 35.1233 167.531 35.1233C169.623 35.1233 171.384 36.6202 171.384 38.9781C171.384 41.3361 169.613 42.889 167.521 42.889L167.531 42.8818ZM156.322 38.9781L156.308 38.9867C156.308 36.6287 158.1 35.1319 160.207 35.1233C160.736 35.113 161.262 35.214 161.75 35.4197C162.238 35.6254 162.677 35.9312 163.039 36.3173L161.954 37.2416C161.723 37.0153 161.45 36.8369 161.151 36.7167C160.851 36.5965 160.53 36.5368 160.207 36.5412C158.887 36.5412 157.739 37.4813 157.739 38.9781C157.739 39.9899 158.34 40.9013 159.263 41.2888C160.186 41.6762 161.248 41.461 161.954 40.7462L163.055 41.6705C162.691 42.0606 162.25 42.37 161.76 42.5787C161.269 42.7874 160.74 42.8906 160.207 42.8818C158.116 42.8818 156.322 41.3361 156.322 38.9781ZM151.74 41.3017C151.738 41.1716 151.762 41.0426 151.811 40.9218C151.859 40.8011 151.931 40.6911 152.022 40.5981C152.112 40.505 152.221 40.4308 152.34 40.3797C152.46 40.3285 152.588 40.3014 152.719 40.2999C152.849 40.3014 152.977 40.3285 153.097 40.3797C153.216 40.4308 153.324 40.5051 153.415 40.5981C153.506 40.6911 153.578 40.8011 153.626 40.9218C153.675 41.0426 153.699 41.1716 153.697 41.3017C153.684 41.5535 153.576 41.791 153.394 41.9657C153.212 42.1404 152.971 42.2391 152.719 42.2417C152.466 42.2391 152.225 42.1404 152.043 41.9657C151.861 41.791 151.752 41.5535 151.74 41.3017Z" fill="white"/>
<path fill-rule="evenodd" clip-rule="evenodd" d="M155.655 25.8349H150.559L146.986 35.0444L143.433 25.8349H138.337L144.532 40.3876L140.679 50.0089H145.738L155.655 25.8349ZM124.661 33.9293C124.661 36.2543 126.693 37.7842 128.689 37.7842C130.651 37.7842 132.579 36.3605 132.579 33.9279C132.579 31.4953 130.651 30.0701 128.689 30.0701C126.693 30.0701 124.661 31.6015 124.661 33.9279V33.9293ZM132.579 42.0553V40.2139C131.545 41.7783 129.134 42.3695 127.897 42.3695C123.801 42.3695 119.704 39.1404 119.704 33.9279C119.704 28.7168 123.8 25.4876 127.897 25.4876C128.929 25.4876 131.34 25.8321 132.579 27.6404V25.8407H137.329V42.0581L132.579 42.0567V42.0553ZM118.352 42.0553H113.601V40.0402C112.808 41.5328 110.883 42.4025 108.885 42.4025C104.754 42.4025 101.104 39.1031 101.104 33.9939C101.104 28.7885 104.754 25.4847 108.885 25.4847C110.88 25.4847 112.811 26.3171 113.601 27.8111V17H118.352L118.352 42.0553ZM113.498 33.892C113.498 31.4608 111.743 30.0357 109.781 30.0357C107.749 30.0357 106.061 31.5641 106.061 33.892C106.061 36.2944 107.749 37.8158 109.78 37.8158C111.779 37.8186 113.498 36.2198 113.498 33.892ZM89.3586 33.4729C89.3586 31.0073 90.633 30.1734 92.3193 30.1734C93.9368 30.1734 95.1079 31.2498 95.1079 33.4026V42.0524H99.8927V32.3621C99.8927 27.7437 97.6194 25.4847 94.0042 25.4847C92.1112 25.4847 90.2183 26.5611 89.3571 28.1943V25.8349H84.5751V42.0524H89.3586V33.4729ZM74.8591 42.3308C70.3153 42.3308 66.525 38.9969 66.525 33.8905C66.525 28.7813 70.311 25.4804 74.8591 25.4804C79.4072 25.4804 83.2261 28.7813 83.2261 33.8905C83.2261 38.9998 79.4028 42.3322 74.8591 42.3322V42.3308ZM74.8591 37.6091C76.854 37.6091 78.5087 36.1481 78.5087 33.892C78.5087 31.7033 76.8554 30.2093 74.8591 30.2093C74.3784 30.2018 73.9012 30.2922 73.4566 30.4751C73.012 30.6579 72.6092 30.9293 72.2729 31.2728C71.9346 31.6181 71.6692 32.0279 71.4924 32.4779C71.3156 32.9278 71.2311 33.4087 71.2439 33.892C71.2453 36.1509 72.8972 37.6091 74.8591 37.6091ZM57.947 30.1748C59.3577 30.1748 60.5977 31.2871 60.5977 33.404V42.0552H65.3482V32.8443C65.3482 27.9475 62.9673 25.4819 59.1511 25.4819C58.0174 25.4819 55.8818 25.8263 54.3318 28.3637C53.4363 26.4879 51.7155 25.5149 49.1724 25.5149C48.2894 25.5104 47.4239 25.7603 46.6792 26.2347C45.9345 26.7091 45.3422 27.3879 44.9731 28.19V25.8363H40.1853V42.0538H44.9687V33.4729C44.9687 31.0073 46.312 30.1734 47.7572 30.1734C49.135 30.1734 50.3721 31.2498 50.4081 33.2992V42.0538H55.1929V33.4729C55.1929 31.1149 56.4328 30.1763 57.947 30.1763V30.1748Z" fill="white"/>
</svg>
