<svg width="59" height="83" viewBox="0 0 59 83" fill="none" xmlns="http://www.w3.org/2000/svg">
<path d="M57.9617 45.0565C57.9617 60.7861 45.2104 73.5374 29.4809 73.5374C13.7513 73.5374 1 60.7861 1 45.0565C1 29.327 13.7513 16.5757 29.4809 16.5757C45.2104 16.5757 57.9617 29.327 57.9617 45.0565Z" fill="white" stroke="black" stroke-width="2"/>
<path d="M24.0715 83V54.7692C21.8923 56.694 18.474 57.5679 14.6244 57.8113V46.749C19.8458 46.0632 23.7065 44.3264 26.7486 37.6116H38.6848V83H24.0715Z" fill="black"/>
<path d="M30.1224 8.47368C32.4623 8.47368 34.3592 6.57678 34.3592 4.23684C34.3592 1.8969 32.4623 0 30.1224 0C27.7824 0 25.8855 1.8969 25.8855 4.23684C25.8855 6.57678 27.7824 8.47368 30.1224 8.47368Z" fill="black"/>
</svg>
