<svg width="59" height="83" viewBox="0 0 59 83" fill="none" xmlns="http://www.w3.org/2000/svg">
<path d="M57.9617 45.0566C57.9617 60.7861 45.2104 73.5374 29.4809 73.5374C13.7513 73.5374 1 60.7861 1 45.0566C1 29.327 13.7513 16.5757 29.4809 16.5757C45.2104 16.5757 57.9617 29.327 57.9617 45.0566Z" fill="white" stroke="black" stroke-width="2"/>
<path d="M41.5277 63.9066L34.9346 71.4953H47.1805V83H11.4384L30.0893 58.1321C31.8925 55.7095 33.0098 53.8399 33.0098 52.0368C33.0098 49.7359 31.7708 48.4969 29.7796 48.4969C27.545 48.4969 25.9852 49.9903 25.9852 53.9063V54.9683H12.799V54.205C12.799 42.3905 19.6355 36.8594 30.1446 36.8594C41.2732 36.8594 47.3685 42.2688 47.3685 50.477C47.3685 55.7648 45.2003 59.7472 41.5277 63.9066Z" fill="black"/>
<path d="M30.1335 8.47368C32.4734 8.47368 34.3703 6.57678 34.3703 4.23684C34.3703 1.8969 32.4734 0 30.1335 0C27.7936 0 25.8967 1.8969 25.8967 4.23684C25.8967 6.57678 27.7936 8.47368 30.1335 8.47368Z" fill="black"/>
</svg>
