<svg width="187" height="65" viewBox="0 0 187 65" fill="none" xmlns="http://www.w3.org/2000/svg">
<path d="M107.872 23.5353L109.639 16.3707L99.6368 17.0133L97.6555 9.0562L90.416 13.3292L86.657 7L81.5165 12.269L75.2087 7.98526L72.6813 14.6144L61.3187 12.7295L64.8956 20.6437L56.5423 23.7602L61.747 31.3317L55.4392 40.1027L66.7911 41.1736L56.6065 60.5468L72.6385 48.4453L76.708 55.2885L80.9061 49.302L88.0278 56.2738L92.9006 49.7732L102.357 52.2578L102.56 43.3155L111.331 42.0411L107.947 33.6985L113.805 28.6758L107.872 23.5353Z" fill="#FA3354"/>
<path d="M85.3612 30.9246L84.7186 39.3421C83.8833 39.7705 82.898 40.1025 81.7628 40.3274C80.6276 40.5523 79.4175 40.6701 78.1216 40.6701C76.4296 40.6701 74.9624 40.3381 73.7201 39.6741C72.4778 39.0101 71.5247 38.057 70.85 36.8254C70.1753 35.5938 69.8433 34.1481 69.8433 32.4774C69.8433 30.6461 70.2181 29.0397 70.9678 27.6689C71.7174 26.2874 72.7884 25.2272 74.1699 24.4775C75.5514 23.7279 77.1685 23.353 79.0212 23.353C81.6129 23.353 83.6905 23.9635 85.2327 25.2057L83.6156 28.365C82.9302 27.8403 82.2662 27.4547 81.6022 27.2191C80.9382 26.9728 80.1671 26.855 79.2997 26.855C77.704 26.855 76.4724 27.3583 75.6049 28.3543C74.7375 29.3503 74.3091 30.7425 74.3091 32.531C74.3091 34.0838 74.6732 35.2726 75.4122 36.0865C76.1511 36.9111 77.2542 37.318 78.7428 37.318C79.4068 37.318 80.1136 37.2217 80.874 37.0289L81.1096 33.9446H78.1431L78.3787 30.9353H85.3612V30.9246Z" fill="white"/>
<path d="M99.0371 35.744C99.7867 34.7159 100.162 33.3022 100.162 31.4924C100.162 29.993 99.8188 28.8257 99.1441 27.9904C98.4587 27.1551 97.5163 26.7481 96.2955 26.7481C94.9782 26.7481 93.9501 27.2622 93.2112 28.2903C92.4615 29.3184 92.0974 30.732 92.0974 32.5419C92.0974 34.0626 92.4294 35.2299 93.1041 36.0546C93.7788 36.8792 94.7319 37.2861 95.9849 37.2861C97.27 37.2861 98.2874 36.7721 99.0371 35.744ZM91.6047 39.7172C90.341 39.0639 89.3665 38.1108 88.6918 36.8792C88.0064 35.6476 87.6744 34.2018 87.6744 32.5419C87.6744 30.7106 88.0278 29.0935 88.7346 27.7012C89.4415 26.309 90.4374 25.2381 91.7333 24.4777C93.0291 23.7174 94.5284 23.3425 96.2419 23.3425C97.934 23.3425 99.4119 23.6745 100.676 24.3278C101.939 24.9811 102.914 25.9342 103.589 27.1658C104.274 28.3974 104.606 29.8431 104.606 31.5031C104.606 33.3451 104.253 34.9515 103.546 36.3437C102.839 37.7359 101.843 38.8176 100.547 39.5672C99.2512 40.3276 97.7519 40.7024 96.0384 40.7024C94.3463 40.7024 92.8685 40.3811 91.6047 39.7172Z" fill="white"/>
<path d="M118.817 23.5671H122.973L121.645 40.4665H118.325L111.439 31.0423L110.678 40.4665H106.555L107.883 23.5671H111.128L118.035 33.0128L118.817 23.5671Z" fill="white"/>
<path d="M140.461 30.9246L139.818 39.3421C138.983 39.7705 137.998 40.1025 136.863 40.3274C135.727 40.5523 134.517 40.6701 133.221 40.6701C131.529 40.6701 130.062 40.3381 128.82 39.6741C127.578 39.0101 126.624 38.057 125.95 36.8254C125.275 35.5938 124.943 34.1481 124.943 32.4774C124.943 30.6461 125.318 29.0397 126.068 27.6689C126.817 26.2874 127.888 25.2272 129.27 24.4775C130.651 23.7279 132.268 23.353 134.121 23.353C136.713 23.353 138.79 23.9635 140.332 25.2057L138.715 28.365C138.03 27.8403 137.366 27.4547 136.702 27.2191C136.038 26.9728 135.267 26.855 134.399 26.855C132.804 26.855 131.572 27.3583 130.705 28.3543C129.837 29.3503 129.409 30.7425 129.409 32.531C129.409 34.0838 129.773 35.2726 130.512 36.0865C131.251 36.9111 132.354 37.318 133.843 37.318C134.506 37.318 135.213 37.2217 135.974 37.0289L136.209 33.9446H133.243L133.478 30.9353H140.461V30.9246Z" fill="white"/>
</svg>
