<svg width="59" height="83" viewBox="0 0 59 83" fill="none" xmlns="http://www.w3.org/2000/svg">
<path d="M57.4399 44.6578C57.4399 60.2432 44.8054 72.8777 29.2199 72.8777C13.6345 72.8777 1 60.2432 1 44.6578C1 29.0723 13.6345 16.4378 29.2199 16.4378C44.8054 16.4378 57.4399 29.0723 57.4399 44.6578Z" fill="white" stroke="black" stroke-width="2"/>
<path d="M28.5291 83C21.501 83 15.0978 80.1054 11.3371 75.6649L18.113 67.2223C20.7664 70.0621 24.0886 71.8493 27.1696 71.8493C29.9435 71.8493 32.0377 70.4897 32.0377 67.9679C32.0377 65.4461 29.9435 64.0865 26.0622 64.0865H23.4088V54.4708H25.9964C28.9567 54.4708 30.9303 53.177 30.9303 50.8307C30.9303 48.9229 28.7704 47.6839 26.3692 47.6839C24.0886 47.6839 21.501 48.9119 19.034 51.2583L13.1791 42.0153C17.7402 38.1998 22.6084 36.5332 28.5182 36.5332C37.3883 36.5332 45.0963 40.8422 45.0963 48.7365C45.0963 54.0322 42.2565 56.4444 39.3071 58.3522C43.1885 59.953 46.2036 63.0997 46.2036 68.3955C46.2146 77.3315 39.1316 83 28.5291 83Z" fill="black"/>
<path d="M29.8668 8.39868C32.186 8.39868 34.0661 6.51857 34.0661 4.19934C34.0661 1.88011 32.186 0 29.8668 0C27.5475 0 25.6674 1.88011 25.6674 4.19934C25.6674 6.51857 27.5475 8.39868 29.8668 8.39868Z" fill="black"/>
</svg>
