<svg class="download-small" viewBox="0 0 48 49" version="1.1" xmlns="http://www.w3.org/2000/svg" xmlns:xlink="http://www.w3.org/1999/xlink">
    <g stroke="none" stroke-width="1" fill="none" fill-rule="evenodd">
        <g transform="translate(0.000000, 1.000000)" fill="#231F20">
            <path d="M23,28.0054605 L23,7 L25,7 L25,28.0109607 L31.0195312,28.027515 L23.9676148,35.9890137 L17.0195312,27.9890137 L23,28.0054605 Z M8.44359973,7.44352918 C4.28853791,11.5986183 2.00011294,17.1232976 2.00011294,22.9997105 C2.00011294,35.1306139 11.8694342,45 23.9999682,45 C29.8766319,45 35.4012749,42.71156 39.5563367,38.5561813 C43.711688,34.4010922 46.0001129,28.8764129 46.0001129,23 C46.0001129,10.8690967 36.1307917,1 23.9999682,1 C18.1235939,1 12.598951,3.28815054 8.44359973,7.44352918 Z M0.000112941176,22.9997166 C0.000112941176,16.5890993 2.49639065,10.5621782 7.02930679,6.02923535 C11.5622229,1.49629245 17.5893918,-1 23.9994045,-1 C37.2334453,-1 48.0001129,9.76644783 48.0001129,23 C48.0001129,29.4106173 45.5038352,35.4378218 40.9706357,39.9707647 C36.4377196,44.5037076 30.4108341,47 23.9999713,47 C10.7664972,47 0.000112941176,36.2335522 0.000112941176,22.9997166 Z M25.996639,30.4121125 L21.996639,30.4027957 L23.9818869,32.4027957 L25.996639,30.4121125 Z M15,37 L33,37 L33,39 L15,39 L15,37 Z" id="Combined-Shape"></path>
        </g>
    </g>
</svg>