<svg version="1.1" id="Layer_1" xmlns="http://www.w3.org/2000/svg" xmlns:xlink="http://www.w3.org/1999/xlink" x="0px" y="0px"
	 viewBox="0 0 301.71 263.22" style="enable-background:new 0 0 301.71 263.22;" xml:space="preserve">
<path fill = "#1B1C1C" d="M29,8.51c-3.55,5.34-8.91,15.25-9.08,26.64c-0.1,6.83,1.19,11.9,4.29,24.16c1.48,5.83,3.35,13.24,5.68,23.19
	c5.48,23.45,33.22,39.29,72.41,41.35c10.1,0.53,15.86,6.3,22.53,12.98c11.28,11.29,26.72,26.76,74.92,29.69
	c27.18,1.65,51.96,16.2,91.77,54.68c-32.23-69.45-78.33-68.32-106.49-67.65c-12.5,0.32-21.53,0.53-25.17-5.64
	c-19.94-33.75-38.13-32.61-51.4-31.76c-8.35,0.53-16.23,1.02-19.38-9.09c-8.24-26.49-17.98-30.1-25.81-33.02
	c-4.28-1.59-8.32-3.09-11.28-7.54C41,50.05,32.28,20.56,29,8.51 M299.11,234.92c-0.67,0-1.34-0.26-1.84-0.76
	c-44.43-44.41-70.03-60.75-97.84-62.44c-50.18-3.05-66.42-19.33-78.29-31.21c-6.39-6.41-11.01-11.03-19.11-11.46
	c-41.6-2.18-71.18-19.57-77.21-45.37c-2.31-9.9-4.18-17.29-5.65-23.09c-3.22-12.72-4.55-17.99-4.45-25.51
	C14.99,16.12,27.65,1.5,28.19,0.88c0.64-0.72,1.63-1.03,2.57-0.81c0.94,0.23,1.68,0.96,1.91,1.9c0.1,0.42,10.41,41.82,23.65,61.65
	c2.03,3.05,4.86,4.1,8.76,5.55c8.43,3.13,19.97,7.42,28.97,36.35c1.86,5.98,5.44,5.99,14.08,5.44c13.8-0.88,34.65-2.19,56.21,34.32
	c2.08,3.52,10.23,3.32,20.55,3.08c31.04-0.78,83.01-2.02,116.63,83.01c0.45,1.15,0.04,2.45-1,3.13
	C300.1,234.78,299.6,234.92,299.11,234.92"/>
<path fill = "#1B1C1C" d="M288.68,250.52c-42-4.55-66.08-13.8-130.43-38.51l-14.78-5.67c-20.62-7.9-32.87-17.92-43.68-26.75
	c-9.02-7.38-16.81-13.75-27.28-16.61c-50.92-13.93-60.86-44.41-62.7-53.42C-0.53,58.7,17.09,20.6,17.85,19l4.71,2.22
	c-0.18,0.38-17.63,38.22-7.64,87.3c1.69,8.27,10.91,36.29,58.97,49.44c11.54,3.16,19.73,9.85,29.2,17.61
	c10.5,8.59,22.41,18.32,42.25,25.92l14.79,5.68c63.89,24.53,87.79,33.72,129.12,38.19L288.68,250.52z"/>
<path fill = "#1B1C1C" d="M283.23,249.81l-0.63-5.16c9.27-1.13,12.02-2.13,13.42-4.89c2.16-4.26-4.4-19.51-9.75-28.98l4.54-2.56
	c2.38,4.21,14.05,25.65,9.86,33.91C297.86,247.66,292.21,248.72,283.23,249.81"/>
<path fill = "#1B1C1C" d="M228.31,263.22c-35.25,0-48.22-8.49-64.56-19.19c-5.13-3.35-8.82-6.4-12.08-9.09
	c-8.67-7.15-14.94-12.32-34.5-14.64c-28.31-3.34-49-21.45-58.11-35.94c-2.51-3.99-4.14-6.78-5.4-8.94
	c-2.84-4.86-3.61-6.16-8.28-10.8c-2.24-2.22-4.8-2.94-8.35-3.94c-5.86-1.65-13.88-3.91-23.92-15.02
	c-27.23-30.15-3.77-100.14-2.76-103.11l4.93,1.68c-0.24,0.7-23.49,70.06,1.7,97.95c9.03,9.99,15.64,11.86,21.46,13.5
	c3.81,1.07,7.41,2.09,10.6,5.26c5.15,5.1,6.23,6.94,9.11,11.86c1.24,2.12,2.85,4.87,5.32,8.8c6.84,10.88,25.98,30.19,54.3,33.54
	c21.08,2.49,28.55,8.65,37.2,15.79c3.31,2.74,6.73,5.56,11.26,8.52c16.87,11.05,28.84,18.94,63.87,18.58
	c35.45-0.29,46.47-1.05,64.49-16.44l3.38,3.95c-19.35,16.52-31.7,17.4-67.84,17.69C229.53,263.22,228.91,263.22,228.31,263.22"/>
<path fill = "#1B1C1C" d="M148.47,207.99c-0.11-0.12-10.69-11.5,4.41-28.35c14.38-16.05,42.73-13.45,43.93-13.33l-0.51,5.18
	c-0.26-0.03-26.93-2.45-39.54,11.62c-11.76,13.13-4.82,20.98-4.51,21.3L148.47,207.99z"/>
<path fill = "#1B1C1C" d="M251.9,243.92l-1.64-4.94c7.73-2.57,16.31-8.45,13.33-21.87c-4.08-18.39-24.01-31.2-24.21-31.33l2.79-4.39
	c0.89,0.57,21.95,14.08,26.51,34.6C271.61,229.22,265.5,239.4,251.9,243.92"/>
<path fill = "#1B1C1C" d="M75.77,163.64l-0.43-0.65c-2.59-3.93-7.41-11.25-2.08-21.91c5.36-10.73,18.07-17.15,33.14-16.67l-0.16,5.2
	c-10.18-0.33-23.02,3.16-28.33,13.79c-3.99,7.98-0.66,13.03,1.77,16.72l0.45,0.69L75.77,163.64z"/>
<path fill = "#1B1C1C" d="M158.49,176.32c0-0.05-0.57-5.06-7.4-14.98l4.29-2.95c7.67,11.14,8.26,16.91,8.31,17.53l-5.2,0.35l2.6-0.18
	L158.49,176.32z"/>
<path fill = "#1B1C1C" d="M13.94,97.35l-5.1-1.06c2.74-13.16,13.4-16.16,18.65-15.79l-0.28,5.19C26.76,85.67,16.44,85.37,13.94,97.35"/>
<path fill = "#1B1C1C" d="M84.05,134.8L79,133.54c1.01-4.05-1.03-9.23-1.05-9.28l4.82-1.97C82.87,122.56,85.49,129.05,84.05,134.8"/>
<path fill = "#1B1C1C" d="M53.36,154.37c-2.6,0-4.34-0.19-4.55-0.21l0.6-5.17c0.14,0.02,14.07,1.52,22.39-4.71l3.13,4.16
	C68.14,153.52,58.84,154.37,53.36,154.37"/>
</svg>
