
<!-- Generator: Adobe Illustrator 23.0.2, SVG Export Plug-In . SVG Version: 6.00 Build 0)  -->
<svg version="1.1" id="Layer_1" xmlns="http://www.w3.org/2000/svg" xmlns:xlink="http://www.w3.org/1999/xlink" x="0px" y="0px"
	 viewBox="0 0 293.32 292.21" style="enable-background:new 0 0 293.32 292.21;" xml:space="preserve">
<path d="M149.39,247.6c-0.35,0-0.71-0.08-1.05-0.23c-1.25-0.58-1.79-2.07-1.21-3.32L255.29,11.53c2.24-4.81,6.24-8.47,11.25-10.3
	c5.02-1.83,10.43-1.61,15.25,0.63c4.81,2.24,8.47,6.24,10.3,11.25c1.83,5.02,1.61,10.43-0.63,15.25L273,68.04
	c-0.58,1.25-2.07,1.79-3.32,1.21c-1.25-0.58-1.79-2.07-1.21-3.32l18.46-39.68c1.68-3.6,1.84-7.66,0.47-11.42
	c-1.37-3.76-4.11-6.76-7.72-8.43c-3.6-1.67-7.66-1.84-11.42-0.47c-3.76,1.37-6.76,4.11-8.44,7.72L151.66,246.15
	C151.24,247.06,150.33,247.6,149.39,247.6z"/>
<path d="M79.39,292.21c-11.22,0-22.59-2.38-33.41-7.41c-39.72-18.48-57.03-65.84-38.6-105.57l1.05-2.27l144.22,67.09l-1.06,2.27
	C138.12,275.2,109.35,292.21,79.39,292.21z M10.9,183.62c-15.59,36.75,0.73,79.69,37.19,96.65c36.46,16.96,79.81,1.78,97.88-33.81
	L10.9,183.62z"/>
<path d="M60.67,267.31c-0.19,0-0.39-0.02-0.58-0.07c-3.05-0.72-6.05-1.77-8.91-3.1c-18.28-8.51-29-27.67-26.67-47.68
	c0.16-1.37,1.4-2.36,2.77-2.19c1.37,0.16,2.35,1.4,2.19,2.77c-2.08,17.87,7.49,34.97,23.81,42.57c2.56,1.19,5.24,2.12,7.96,2.77
	c1.34,0.32,2.17,1.67,1.85,3.01C62.82,266.54,61.8,267.31,60.67,267.31z"/>
</svg>
