
<!-- Generator: Adobe Illustrator 23.0.2, SVG Export Plug-In . SVG Version: 6.00 Build 0)  -->
<svg version="1.1" id="Layer_1" xmlns="http://www.w3.org/2000/svg" xmlns:xlink="http://www.w3.org/1999/xlink" x="0px" y="0px"
	 viewBox="0 0 221.14 367.12" style="enable-background:new 0 0 221.14 367.12;" xml:space="preserve">
<g>
	<rect x="187.16" y="25.42" transform="matrix(0.5074 -0.8617 0.8617 0.5074 73.3558 184.155)" width="21.18" height="5"/>
	<path d="M210.6,26.35c-1.59,0-3.19-0.41-4.66-1.27h0l-9.68-5.7c-4.38-2.58-5.84-8.24-3.27-12.61l1.31-2.23
		c1.24-2.12,3.25-3.62,5.63-4.24c2.39-0.62,4.87-0.27,6.98,0.97l9.68,5.7c4.38,2.58,5.84,8.24,3.27,12.61l-1.31,2.23
		C216.84,24.72,213.76,26.35,210.6,26.35z M208.47,20.77c2,1.18,4.59,0.51,5.77-1.49l1.31-2.23c1.18-2,0.51-4.59-1.49-5.77
		l-9.68-5.7c-0.96-0.57-2.1-0.72-3.19-0.44c-1.09,0.28-2.01,0.97-2.58,1.93L197.3,9.3c-0.57,0.96-0.72,2.1-0.44,3.19
		s0.97,2.01,1.93,2.58L208.47,20.77L208.47,20.77z"/>
	<path d="M190.45,132.14c-1.96,0-3.95-0.51-5.75-1.57h0l-70.36-41.42c-5.41-3.18-7.22-10.17-4.03-15.58l1.74-2.95
		c1.54-2.61,4.01-4.47,6.96-5.23c2.95-0.76,6.01-0.34,8.62,1.2l70.36,41.42c2.61,1.54,4.47,4.01,5.23,6.96s0.34,6.01-1.2,8.62
		l-1.73,2.95C198.16,130.13,194.36,132.14,190.45,132.14z M187.24,126.26c3.03,1.78,6.95,0.77,8.73-2.26l1.73-2.95
		c0.86-1.46,1.1-3.18,0.67-4.83s-1.47-3.04-2.93-3.9L125.08,70.9c-1.46-0.86-3.18-1.1-4.83-0.67c-1.66,0.43-3.04,1.47-3.9,2.93
		l-1.74,2.95c-1.78,3.03-0.77,6.95,2.26,8.73L187.24,126.26z"/>
	<path d="M110.55,267.86c-2,0-3.97-0.53-5.74-1.57l-70.36-41.41c-5.41-3.18-7.22-10.17-4.03-15.58l1.74-2.95
		c1.54-2.61,4.01-4.47,6.96-5.23c2.95-0.77,6.01-0.34,8.62,1.2l70.36,41.41c2.61,1.54,4.47,4.01,5.23,6.96
		c0.76,2.95,0.34,6.01-1.2,8.62l-1.73,2.95c-1.54,2.61-4.01,4.47-6.96,5.23C112.48,267.74,111.51,267.86,110.55,267.86z
		 M41.99,205.75c-0.54,0-1.09,0.07-1.62,0.21c-1.66,0.43-3.04,1.47-3.9,2.93l-1.74,2.95c-1.78,3.03-0.77,6.95,2.26,8.73l70.36,41.41
		c1.46,0.86,3.17,1.1,4.83,0.67c1.66-0.43,3.04-1.47,3.9-2.93l1.73-2.95c0.86-1.46,1.1-3.18,0.67-4.83s-1.47-3.04-2.93-3.9
		L45.2,206.63C44.21,206.05,43.11,205.75,41.99,205.75z"/>
	<path d="M99.42,286.77c-2,0-3.97-0.53-5.74-1.57l-70.36-41.42c-5.41-3.18-7.22-10.17-4.03-15.58l1.73-2.95
		c1.54-2.61,4.01-4.47,6.96-5.23c2.95-0.76,6.01-0.34,8.62,1.2l70.36,41.42c2.61,1.54,4.47,4.01,5.23,6.96s0.34,6.01-1.2,8.62
		l-1.74,2.95c-1.54,2.61-4.01,4.47-6.96,5.23C101.35,286.65,100.38,286.77,99.42,286.77z M30.86,224.65c-0.54,0-1.09,0.07-1.63,0.21
		c-1.66,0.43-3.04,1.47-3.9,2.93l-1.73,2.95c-1.78,3.03-0.77,6.95,2.26,8.74l70.36,41.42c1.46,0.86,3.18,1.1,4.83,0.67
		s3.04-1.47,3.9-2.93l1.74-2.95c0.86-1.46,1.1-3.18,0.67-4.83c-0.43-1.66-1.47-3.04-2.93-3.9l-70.36-41.42
		C33.08,224.95,31.98,224.65,30.86,224.65z"/>
	<path d="M78.22,313.07c-2.18,0-4.38-0.56-6.39-1.74L11.1,275.57c-2.9-1.71-4.96-4.45-5.81-7.73c-0.85-3.28-0.38-6.68,1.33-9.58
		l6.79-11.54c3.54-6.01,11.3-8.02,17.31-4.48l60.73,35.75c6.01,3.54,8.02,11.3,4.48,17.31l-6.79,11.54
		C86.78,310.84,82.55,313.07,78.22,313.07z M74.37,307.01c3.63,2.14,8.33,0.92,10.46-2.71l6.79-11.54
		c2.14-3.63,0.92-8.33-2.71-10.46l-60.73-35.75c-3.63-2.14-8.33-0.92-10.46,2.71l-6.79,11.54c-1.03,1.75-1.31,3.81-0.8,5.79
		c0.51,1.98,1.76,3.64,3.51,4.67L74.37,307.01z"/>
	<path d="M115.16,247.81l-69.57-40.95l2.27-3.59c4.74-7.53,12.68-20.12,37.18-45.33c19.36-19.91,32.57-35.17,39.5-64.82l0.77-3.31
		l53.48,31.48l-2.52,2.28c-22.55,20.45-29.49,39.4-37.5,65.99c-10.14,33.66-17.3,46.71-21.58,54.51L115.16,247.81z M52.58,205.17
		l60.67,35.71c4.23-7.72,11.09-20.72,20.74-52.75c7.95-26.4,14.9-45.52,36.45-65.95l-41.83-24.62
		c-7.41,28.76-20.75,44.11-39.97,63.88C65.31,185.41,57.28,197.72,52.58,205.17z"/>
	<g>
		<path d="M195.28,112.22L125.25,71l0.16-1.59c0.66-6.56,2.7-12.77,6.05-18.46c6.16-10.46,16.02-17.9,27.77-20.94
			c11.75-3.04,23.99-1.33,34.45,4.83c10.46,6.16,17.9,16.02,20.94,27.77s1.33,23.99-4.83,34.45c-3.35,5.69-7.79,10.48-13.2,14.25
			L195.28,112.22z M130.58,68.33l64.45,37.93c4.24-3.19,7.75-7.14,10.46-11.75c5.48-9.31,7.01-20.2,4.3-30.66
			c-2.71-10.46-9.33-19.24-18.64-24.72c-9.31-5.48-20.2-7-30.66-4.3c-10.46,2.71-19.24,9.33-24.72,18.64
			C133.06,58.09,131.31,63.08,130.58,68.33z"/>
	</g>
</g>
<circle cx="13.93" cy="298.84" r="4.62"/>
<circle cx="4.62" cy="337.45" r="4.62"/>
<circle cx="33.22" cy="322.15" r="4.62"/>
<circle cx="48.74" cy="343.66" r="4.62"/>
<circle cx="25.68" cy="362.5" r="4.62"/>
</svg>
