
<!-- Generator: Adobe Illustrator 23.0.2, SVG Export Plug-In . SVG Version: 6.00 Build 0)  -->
<svg version="1.1" id="Layer_1" xmlns="http://www.w3.org/2000/svg" xmlns:xlink="http://www.w3.org/1999/xlink" x="0px" y="0px"
	 viewBox="0 0 267.37 278.44" style="enable-background:new 0 0 267.37 278.44;" xml:space="preserve">
<path d="M148.05,117.23l-1.23-1.7c-0.96-1.34-2.15-2.62-3.53-3.81c-7.45-6.43-8.2-16.1-7.9-25.58c0.2-6.24-5.57-10.23-10.45-12.49
	c-1.03-0.48-2.1-0.89-3.13-1.28c-4.06-1.56-8.26-3.17-11.84-9.01c-2.45-4-10.86-8.74-19.99-11.26l-1.65-0.46l-0.17-1.71
	c-0.38-3.83-0.44-7.37-0.17-10.53c1.25-14.87,12-18.88,17.16-20.81c1.28-0.48,2.82-2.9,4.31-5.25c2.81-4.42,6.3-9.92,12.87-12.18
	c8.76-3.01,15.93,0.44,22.87,3.78c1.69,0.82,3.44,1.66,5.19,2.39c4.65,1.95,7.9,0.32,12.02-1.74c2.37-1.19,5.06-2.53,8.19-3.17
	c6.37-1.3,10.05,2.18,13.29,5.26c1.72,1.63,3.49,3.31,5.73,4.48c2.43,1.27,4.04,1.04,6.27,0.71c3.03-0.44,6.8-0.99,12.33,2.76
	c6.92,4.69,9.35,5.55,16.57,8.11c1.42,0.5,3,1.06,4.83,1.73c8.3,3.01,11.26,9.92,13.64,15.47c1.21,2.82,2.35,5.48,3.97,7.27
	c5.85,6.44,9.2,11.02,6.43,20.21c-1.38,4.59-1.05,6.85-0.54,10.26c0.31,2.1,0.66,4.47,0.68,7.78c0.02,4.06-2.02,7.93-6.06,11.5
	l-1.97,1.74l-1.64-2.05c-1.71-2.13-3.93-3.96-6.79-5.59c-13.94-7.94-27.37-14.9-38.41-12.83c-6.13,1.15-11.09,8.47-15.89,15.56
	c-5.05,7.44-9.81,14.47-16.55,15.97l0,0c-6.27,1.39-11.69,3.22-16.57,5.58L148.05,117.23z M93,47.76
	c7.9,2.42,17.63,7.07,21.25,12.98c2.69,4.39,5.64,5.52,9.36,6.95c1.11,0.43,2.26,0.87,3.44,1.41c8.96,4.15,13.58,10.09,13.35,17.19
	c-0.26,8.25,0.3,16.58,6.17,21.64c1.11,0.96,2.12,1.97,3.03,3.03c4.75-2.12,9.95-3.8,15.83-5.11l0,0c4.8-1.07,9.22-7.59,13.5-13.9
	c5.38-7.93,10.94-16.13,19.11-17.66c12.72-2.38,27.03,4.98,41.81,13.4c2.49,1.42,4.59,2.99,6.37,4.75c1.74-2,2.62-4,2.61-5.98
	c-0.01-2.95-0.32-5.04-0.62-7.06c-0.54-3.64-1.01-6.78,0.7-12.44c2.06-6.85-0.15-9.68-5.35-15.41c-2.19-2.41-3.55-5.58-4.87-8.65
	c-2.31-5.38-4.49-10.47-10.75-12.74c-1.82-0.66-3.39-1.22-4.8-1.71c-7.46-2.64-10.26-3.63-17.71-8.68
	c-3.92-2.66-6.08-2.35-8.81-1.95c-2.55,0.37-5.44,0.79-9.3-1.23c-2.86-1.49-4.98-3.5-6.85-5.28c-3.31-3.14-5.21-4.74-8.85-3.99
	c-2.48,0.51-4.66,1.59-6.96,2.74c-4.42,2.21-9.43,4.71-16.19,1.87c-1.87-0.78-3.67-1.66-5.42-2.5c-6.58-3.17-12.26-5.91-19.07-3.56
	c-4.92,1.69-7.77,6.18-10.28,10.14c-2.11,3.32-3.93,6.19-6.78,7.25c-4.84,1.81-12.95,4.83-13.93,16.54
	C92.78,42.22,92.78,44.89,93,47.76z"/>
<path d="M104.02,230.26l-0.2-5.95l3.23-3.88c9.72-11.68,23.04-27.68,36.61-41l0,0c7.09-6.96,17.13-15.27,26.72-22.82
	c-9.85,5.19-20.3,10.4-28.57,13.82c-7.86,3.25-20.61,11.32-35.9,22.71l-3.48,2.59l-0.56-4.83c-1.48-11.79,16.34-46.69,19.93-53.56
	c8.89-17.04,22.34-26.75,43.62-31.49c4.8-1.07,9.22-7.59,13.5-13.9c5.38-7.93,10.94-16.13,19.11-17.66
	c12.72-2.38,27.03,4.98,41.81,13.4c8.73,4.98,11.19,11,13.57,16.83c1.72,4.22,3.51,8.59,7.77,13.22c8.96,9.72,6.14,21.73,4.08,30.5
	c-0.63,2.69-1.23,5.24-1.38,7.27c-0.75,9.92-6.42,20.3-11.36,25.74c-4.13,4.54-10.05,6.33-15.78,8.05
	c-5.62,1.69-10.93,3.29-14.21,7.27c-8.18,9.94-25.08,11.74-31.47,9.88c-6.86-2-20.9-4.61-29.35-3.12c-3.34,0.59-6.6,4.17-10.04,7.96
	c-5.08,5.58-10.82,11.88-19.46,11.76c-0.18,0-0.36,0-0.54,0c-11.07,0-24.14,5.67-24.27,5.72L104.02,230.26z M147.17,183
	c-12.6,12.36-25.05,27.15-34.52,38.51c5.31-1.71,12.75-3.57,19.65-3.46c0.07,0,0.13,0,0.2,0c6.26,0,10.94-5.15,15.47-10.13
	c4.04-4.44,7.85-8.63,12.87-9.52c10.47-1.85,26.37,1.71,31.62,3.24c5.38,1.57,19.77-0.43,26.21-8.25
	c4.24-5.16,10.54-7.05,16.63-8.89c5.31-1.6,10.33-3.11,13.52-6.62c4.52-4.98,9.44-14.4,10.07-22.76c0.18-2.41,0.82-5.14,1.5-8.03
	c2-8.53,4.27-18.2-2.89-25.97c-4.87-5.29-6.92-10.3-8.72-14.72c-2.34-5.73-4.18-10.25-11.42-14.37
	c-13.94-7.94-27.37-14.9-38.41-12.83c-6.13,1.15-11.09,8.47-15.89,15.56c-5.05,7.44-9.81,14.47-16.55,15.97
	c-19.71,4.39-32.13,13.31-40.28,28.92c-8.54,16.38-17.33,36.3-19.13,46.4c10.51-7.65,23.52-16.4,32.8-20.24
	c21.79-9.01,59.08-30.74,59.45-30.96l2.71,4.19C201.7,139.32,164.65,165.85,147.17,183L147.17,183z"/>
<path d="M55.77,235.77l3.96-10.29c5-12.97,5.86-21.04,2.81-26.17c-2.81-4.73-2.79-7.87-2.78-10.64c0.02-2.96,0.03-5.52-3.71-10.79
	c-2.92-4.11-4.94-4.83-7.27-5.66c-3.51-1.25-7.5-2.66-13.1-12.87c-5.67-10.33-12.59-15.18-19.29-19.88
	c-3.73-2.61-7.24-5.08-10.3-8.34c-9.26-9.85-6.37-25.41-1.77-30.26c3.21-3.39,6.61-16.63,8.25-23l0.44-1.72
	c2.12-8.15,10.81-14.01,17.62-16.55l0,0c2.16-0.81,3.15-2.19,4.66-4.27c2.13-2.95,5.04-6.99,12.69-10.36
	c9.89-4.36,19.31-2.4,27.63-0.67c2.81,0.58,5.47,1.14,7.99,1.42c10.89,1.2,26.15,7.66,30.66,15.01c2.69,4.39,5.64,5.52,9.36,6.95
	c1.11,0.43,2.26,0.87,3.44,1.41c8.96,4.15,13.58,10.09,13.35,17.19c-0.26,8.25,0.3,16.58,6.17,21.64c1.67,1.44,3.13,3.01,4.32,4.67
	l1.74,2.42l-2.68,1.29c-10.51,5.07-18.04,12.49-23.7,23.34c-10,19.17-20.33,43.19-19.4,50.63l0.23,1.99l-1.16,0.86
	c-14.93,11.13-30.68,24.23-42.14,35.05L55.77,235.77z M60.99,47.35c-3.62,0-7.29,0.58-11,2.22c-6.41,2.83-8.66,5.95-10.65,8.71
	c-1.66,2.31-3.39,4.7-6.97,6.03l0,0c-5.93,2.21-13.01,7.26-14.53,13.12l-0.44,1.71c-2.71,10.56-5.67,21.2-9.46,25.2
	c-3.01,3.17-5.51,15.62,1.79,23.39c2.71,2.88,6.02,5.21,9.53,7.67c6.83,4.79,14.57,10.22,20.8,21.57
	c4.69,8.55,7.46,9.53,10.39,10.57c2.74,0.97,5.84,2.07,9.68,7.48c4.67,6.58,4.65,10.37,4.63,13.71c-0.01,2.53-0.03,4.52,2.07,8.05
	c3.51,5.9,2.76,13.71,0.69,21.22c10.22-9.12,22.46-19.14,34.27-28c-0.52-12.59,16.5-45.93,20-52.63
	c5.67-10.86,13.07-18.58,23.13-24.08c-0.51-0.53-1.06-1.05-1.64-1.55c-7.45-6.43-8.2-16.1-7.9-25.58
	c0.2-6.24-5.57-10.23-10.45-12.49c-1.03-0.48-2.1-0.89-3.13-1.28c-4.06-1.56-8.26-3.17-11.84-9.01
	c-3.52-5.75-17.62-11.62-26.94-12.65c-2.75-0.3-5.52-0.88-8.46-1.49C70.14,48.29,65.6,47.35,60.99,47.35z M31.5,61.97L31.5,61.97
	L31.5,61.97z"/>
<path d="M71.37,221.21l0.44-6.03c0.08-1.13,0.09-1.81,0.1-1.84l0.03-0.38c1.66-9.76,6.71-39.47,7.98-58.74
	c1.25-18.96,0.29-48.79,0.28-49.09L79.8,93.15l5.15,10.82c0.47,0.99,11.59,24.53,15.37,47.34c2.24,13.48,3.59,28.35,3.81,41.88
	l0.02,1.27l-1.01,0.77c-9.2,6.96-18.61,14.57-27.21,22.02L71.37,221.21z M85.47,118.02c0.15,10.53,0.16,25.36-0.57,36.52
	c-1.12,17.08-5.15,42.11-7.26,54.68c6.94-5.86,14.26-11.72,21.47-17.21c-0.28-12.95-1.6-27.06-3.72-39.88l0,0
	C93.34,139.79,88.97,126.98,85.47,118.02z"/>
<path d="M62.63,278.44c-0.05,0-0.1,0-0.14,0l0,0c-7.23-0.12-19.4-10.13-20.76-11.27l-0.32-0.32c-0.37-0.45-8.96-11.27,7.67-30.71
	c15.16-17.72,67.76-60.77,90.84-70.32c21.79-9.01,59.08-30.74,59.45-30.96l2.71,4.19c-0.37,0.27-37.42,26.8-54.91,43.95
	c-13.39,13.13-26.61,29.02-36.27,40.62c-3.02,3.63-5.63,6.76-7.68,9.13c-0.81,1.08-11.1,14.81-18.08,25.75
	C81.31,264.52,71.48,278.44,62.63,278.44z M62.57,273.43c0.02,0,0.04,0,0.06,0c3.53,0,10.53-5.43,18.3-17.61
	c7.34-11.51,18.24-26,18.35-26.14l0.11-0.13c2.03-2.34,4.65-5.48,7.68-9.12c9.72-11.68,23.04-27.68,36.61-40.99
	c7.09-6.96,17.13-15.27,26.72-22.82c-9.85,5.19-20.3,10.4-28.57,13.83c-21.81,9.02-74.16,51.64-88.95,68.95
	c-11.29,13.2-9.5,21.7-7.74,24.11C49.81,267.37,58.5,273.36,62.57,273.43L62.57,273.43z"/>
<path d="M146.5,182.79c-0.66,0-1.33-0.26-1.82-0.78c-0.95-1-0.9-2.59,0.1-3.53c19.72-18.63,73.53-12.1,74.03-11.99
	c1.35,0.29,2.2,1.63,1.91,2.97c-0.29,1.35-1.63,2.2-2.98,1.91c-4.01-0.86-52.69-5.16-69.54,10.74
	C147.73,182.57,147.11,182.79,146.5,182.79z"/>
<path d="M191.7,145.36c-0.72,0-1.44-0.31-1.93-0.91c-0.88-1.07-0.73-2.64,0.34-3.52c6.76-5.58,32.06-12.52,46.64-7.71
	c1.31,0.43,2.02,1.85,1.59,3.16c-0.43,1.31-1.85,2.02-3.16,1.59c-13.37-4.41-36.86,2.66-41.9,6.82
	C192.82,145.17,192.26,145.36,191.7,145.36z"/>
<path d="M188.96,147.2c-0.76,0-1.51-0.34-2-1c-0.83-1.1-0.6-2.67,0.5-3.5c0.27-0.2,26.75-20.2,30.5-33.77
	c0.37-1.33,1.75-2.12,3.08-1.74c1.33,0.37,2.11,1.74,1.74,3.08c-4.21,15.21-31.17,35.58-32.32,36.44
	C190,147.03,189.48,147.2,188.96,147.2z"/>
<path d="M157.76,163.07c-0.87,0-1.72-0.46-2.18-1.27c-0.68-1.2-0.26-2.73,0.94-3.41c8.61-4.88,32.4-43.76,34.56-50.5
	c0.42-1.32,1.83-2.04,3.14-1.62c1.31,0.42,2.04,1.83,1.62,3.14c-2.58,8.06-26.83,47.64-36.86,53.32
	C158.6,162.96,158.18,163.07,157.76,163.07z"/>
<path d="M153.12,89.22c-0.59,0-1.18-0.21-1.66-0.63c-1.03-0.92-1.13-2.5-0.21-3.53c3.02-3.4,11.32-22.49-6.61-47.27
	c-0.81-1.12-0.56-2.68,0.56-3.49c1.12-0.81,2.68-0.56,3.49,0.56c20.06,27.72,10.07,49.27,6.3,53.52
	C154.5,88.93,153.81,89.22,153.12,89.22z"/>
<path d="M176.88,73.93c-0.2,0-0.4-0.02-0.6-0.07c-1.34-0.33-2.16-1.69-1.83-3.03c0.06-0.24,6.09-23.52,31.94-23.7
	c0.01,0,0.01,0,0.02,0c1.37,0,2.49,1.11,2.5,2.48c0.01,1.38-1.1,2.51-2.48,2.52c-9.25,0.07-16.62,3.44-21.91,10.03
	c-3.97,4.94-5.2,9.82-5.21,9.87C179.02,73.16,178,73.93,176.88,73.93z"/>
<path d="M168.01,74.95c-0.73,0-1.45-0.32-1.94-0.93c-0.87-1.07-0.7-2.65,0.37-3.52c0.22-0.18,13.44-11.1,14.69-23.78
	c0.51-5.13-1.06-9.94-4.65-14.29c-0.88-1.06-0.73-2.64,0.33-3.52c1.07-0.88,2.64-0.73,3.52,0.34c4.48,5.42,6.42,11.48,5.77,17.99
	c-1.48,14.8-15.91,26.65-16.52,27.15C169.11,74.77,168.56,74.95,168.01,74.95z"/>
<path d="M98.72,156.98c-1.24,0-2.31-0.92-2.48-2.18c-1.03-7.87-3.44-26.31,23.78-53.74c0.97-0.98,2.56-0.99,3.54-0.01
	c0.98,0.97,0.99,2.55,0.01,3.54c-25.49,25.69-23.39,41.82-22.37,49.57c0.18,1.37-0.79,2.62-2.16,2.8
	C98.94,156.97,98.83,156.98,98.72,156.98z"/>
<path d="M88.49,120.68c-0.79,0-1.57-0.37-2.05-1.07c-0.59-0.85-14.34-21.22,1.39-47.19c0.72-1.18,2.25-1.56,3.43-0.84
	c1.18,0.71,1.56,2.25,0.84,3.43c-13.99,23.11-2.07,41.01-1.55,41.76c0.78,1.14,0.49,2.69-0.64,3.47
	C89.47,120.54,88.98,120.68,88.49,120.68z"/>
<path d="M83.19,126.85c-0.16,0-0.32-0.01-0.48-0.04c-1.35-0.26-2.24-1.57-1.98-2.92C80.96,122.67,85.87,94,49.65,79
	c-1.28-0.53-1.88-1.99-1.35-3.27c0.53-1.28,1.99-1.88,3.27-1.35c40.1,16.6,34.15,50.1,34.08,50.44
	C85.41,126.02,84.37,126.85,83.19,126.85z"/>
<path d="M80.79,177.09c-1.13,0-2.15-0.77-2.43-1.91c-0.11-0.43-8.85-34.78-40.91-55.51c-1.16-0.75-1.49-2.3-0.74-3.46
	c0.75-1.16,2.3-1.49,3.46-0.74C74,137.34,82.86,172.51,83.22,174c0.33,1.34-0.5,2.69-1.84,3.02
	C81.18,177.07,80.98,177.09,80.79,177.09z"/>
<path d="M148.05,117.23l-1.23-1.7c-0.96-1.34-2.15-2.62-3.53-3.81c-2.26-1.95-4.06-4.39-5.34-7.25l-0.52-1.17l0.64-1.11
	c1.53-2.63,3.01-4.89,4.42-6.71c14.7-19.05,38.65-37.76,39.67-38.55l10.64-8.27l-6.96,11.54c-0.14,0.23-14.23,23.66-23.78,46.91
	c-0.54,1.31-1.07,2.7-1.59,4.15l-0.42,1.16l-1.18,0.38c-3.22,1.03-6.22,2.21-8.93,3.52L148.05,117.23z M143.08,103.56
	c0.92,1.71,2.06,3.15,3.49,4.37c1.11,0.96,2.12,1.97,3.03,3.03c2.07-0.92,4.28-1.77,6.58-2.55c0.41-1.11,0.83-2.18,1.25-3.21
	c5.41-13.18,12.26-26.4,17.27-35.55c-8.35,7.28-19.96,18.14-28.25,28.88C145.39,99.93,144.25,101.61,143.08,103.56z M158.11,110.42
	L158.11,110.42L158.11,110.42z"/>
</svg>
