
<!-- Generator: Adobe Illustrator 23.0.2, SVG Export Plug-In . SVG Version: 6.00 Build 0)  -->
<svg version="1.1" id="Layer_1" xmlns="http://www.w3.org/2000/svg" xmlns:xlink="http://www.w3.org/1999/xlink" x="0px" y="0px"
	 viewBox="0 0 274.78 274.78" style="enable-background:new 0 0 274.78 274.78;" xml:space="preserve">
<path d="M133.11,223.39L18.67,108.95c-24.89-24.89-24.89-65.39,0-90.29c24.89-24.89,65.39-24.89,90.29,0L223.39,133.1L133.11,223.39
	z M63.81,5C48.74,5,33.68,10.73,22.2,22.2c-22.94,22.94-22.94,60.27,0,83.21l110.9,110.9l83.21-83.21L105.42,22.2
	C93.95,10.73,78.88,5,63.81,5z"/>
<path d="M255.46,274.78c-4.95,0-9.9-1.88-13.67-5.65l-80.75-80.75l27.34-27.34l80.75,80.75c7.54,7.54,7.54,19.8,0,27.34
	C265.36,272.9,260.41,274.78,255.46,274.78z M168.11,188.38l77.21,77.21c5.59,5.59,14.68,5.59,20.27,0c5.59-5.59,5.59-14.68,0-20.27
	l-77.21-77.21L168.11,188.38z"/>
<path d="M102.29,185.12c-4.61,0-9.21-1.75-12.72-5.26l-25.55-25.55c-0.98-0.98-0.98-2.56,0-3.54c0.98-0.98,2.56-0.98,3.54,0
	l25.55,25.55c5.06,5.06,13.3,5.06,18.36,0c5.06-5.06,5.06-13.3,0-18.36l-44.31-44.31c-3.79-3.79-3.79-9.96,0-13.75
	c3.79-3.79,9.96-3.79,13.75,0l37.82,37.84c5.06,5.06,13.3,5.06,18.36,0c5.06-5.06,5.06-13.3,0-18.36L99.59,81.84
	c-1.91-1.91-2.97-4.46-2.97-7.18c0-2.72,1.05-5.27,2.97-7.18c3.96-3.96,10.41-3.96,14.37,0l60.93,60.93
	c2.44,2.44,5.7,3.78,9.18,3.78s6.74-1.34,9.18-3.78c2.44-2.44,3.78-5.7,3.78-9.18s-1.34-6.74-3.78-9.18L167.7,84.49
	c-0.98-0.98-0.98-2.56,0-3.54c0.98-0.98,2.56-0.98,3.54,0l25.55,25.55c3.39,3.38,5.25,7.9,5.25,12.72c0,4.82-1.86,9.33-5.25,12.72
	c-7.01,7.01-18.42,7.01-25.43,0l-60.93-60.93c-2.01-2.01-5.29-2.01-7.3,0c-0.97,0.97-1.5,2.26-1.5,3.65c0,1.38,0.53,2.68,1.5,3.65
	l37.51,37.53c7.01,7.01,7.01,18.42,0,25.43c-7.01,7.01-18.42,7.01-25.44,0l-37.82-37.84c-1.84-1.84-4.84-1.84-6.68,0
	c-1.84,1.84-1.84,4.84,0,6.68l44.31,44.31c7.01,7.01,7.01,18.42,0,25.43C111.5,183.37,106.9,185.12,102.29,185.12z"/>
</svg>
