
<!-- Generator: Adobe Illustrator 23.0.2, SVG Export Plug-In . SVG Version: 6.00 Build 0)  -->
<svg version="1.1" id="Layer_1" xmlns="http://www.w3.org/2000/svg" xmlns:xlink="http://www.w3.org/1999/xlink" x="0px" y="0px"
	 viewBox="0 0 284.31 287.78" style="enable-background:new 0 0 284.31 287.78;" xml:space="preserve">
<path d="M81.21,112.51c-7.85,0-16.15-3.31-22.61-9.78c-3.14-3.14-11.62-14.75-22.37-54.54c-0.38-1.38,0-2.81,1-3.81
	c1-1.01,2.43-1.38,3.81-1.01c13.26,3.58,45.11,12.93,54.54,22.37l0,0c11.8,11.8,13.1,29.7,2.9,39.89
	C93.88,110.25,87.69,112.51,81.21,112.51z M41.55,48.7c5.59,20.29,13.77,43.69,20.58,50.5c9.85,9.85,24.58,11.15,32.82,2.91
	s6.94-22.97-2.9-32.82C85.24,62.47,61.84,54.29,41.55,48.7z"/>
<path d="M169.99,180.77c-1.42,0-2.69-0.74-3.41-1.99c-20.53-35.73-22.75-49.93-22.75-54.38c0-16.69,11.73-30.26,26.15-30.26
	s26.16,13.58,26.16,30.26c0,4.45-2.22,18.65-22.75,54.38C172.69,180.02,171.41,180.77,169.99,180.77z M170.92,176.29L170.92,176.29
	L170.92,176.29z M169.99,99.14c-11.66,0-21.15,11.33-21.15,25.26c0,9.64,10.76,31.97,21.15,50.26c10.4-18.3,21.16-40.63,21.16-50.26
	C191.15,110.47,181.66,99.14,169.99,99.14z"/>
<path d="M139.93,287.78c-16.69,0-30.26-11.73-30.26-26.15s13.58-26.16,30.26-26.16c4.45,0,18.65,2.22,54.38,22.75
	c1.24,0.71,1.99,1.99,1.99,3.41s-0.74,2.69-1.99,3.41C182.41,271.87,153.28,287.78,139.93,287.78z M139.93,240.47
	c-13.93,0-25.26,9.49-25.26,21.16c0,11.66,11.33,21.15,25.26,21.15c9.63,0,31.96-10.76,50.26-21.15
	C171.9,251.23,149.57,240.47,139.93,240.47z"/>
<g>
	<path d="M29.48,166.68l-15.73-36.45l0.46-1.01c4.44-9.8,9.94-19.59,12.09-23.34c0.66-1.14,1.88-1.85,3.19-1.85s2.53,0.71,3.18,1.85
		c2.16,3.75,7.65,13.54,12.09,23.34l0.46,1.01L29.48,166.68z M19.22,130.28l10.26,23.78l10.26-23.78
		c-3.61-7.84-7.82-15.54-10.26-19.89C27.04,114.74,22.83,122.45,19.22,130.28z"/>
	<path d="M29.48,185.01C13.23,185.01,0,166.82,0,144.45c0-10.96,3.11-21.23,8.77-28.9l2.58-3.51l18.13,42.01l18.13-42.01l2.58,3.51
		c5.65,7.67,8.77,17.94,8.77,28.9C58.97,166.82,45.74,185.01,29.48,185.01z M10.35,122.34C6.88,128.61,5,136.3,5,144.45
		c0,19.61,10.98,35.56,24.48,35.56s24.48-15.95,24.48-35.56c0-8.16-1.88-15.84-5.35-22.11l-19.14,44.33L10.35,122.34z"/>
</g>
<g>
	<path d="M229.3,82.65c-0.32,0-0.65-0.04-0.97-0.13c-4.17-1.13-14.96-4.16-25.05-7.95l-1.04-0.39l-14.65-36.9l36.9,14.65l0.39,1.04
		c3.8,10.09,6.83,20.88,7.95,25.05c0.34,1.27-0.02,2.64-0.94,3.56C231.21,82.28,230.27,82.65,229.3,82.65z M206.08,70.27
		c8.1,2.99,16.52,5.47,21.32,6.8c-1.34-4.8-3.81-13.22-6.8-21.32l-24.07-9.56L206.08,70.27z"/>
	<path d="M213.41,88.73l-4.31-0.65c-9.42-1.43-18.88-6.48-26.63-14.24c-15.81-15.81-19.33-38.03-7.83-49.53
		c11.5-11.49,33.71-7.98,49.53,7.83c7.75,7.75,12.81,17.21,14.24,26.63l0.65,4.3l-42.53-16.88L213.41,88.73z M192.39,22.48
		c-5.57,0-10.58,1.74-14.21,5.37c-9.54,9.55-6.03,28.59,7.83,42.46c5.77,5.77,12.53,9.88,19.42,11.85L187.6,37.28l44.88,17.82
		c-1.98-6.89-6.09-13.65-11.85-19.42C212.04,27.1,201.46,22.48,192.39,22.48z"/>
</g>
<g>
	<path d="M234,230.28l-36.45-15.73L234,198.81l1.01,0.46c9.83,4.46,19.6,9.94,23.34,12.09c1.14,0.66,1.85,1.88,1.85,3.18
		c0,1.31-0.71,2.53-1.85,3.19c-3.75,2.16-13.53,7.65-23.34,12.09L234,230.28z M210.17,214.55l23.78,10.26
		c7.84-3.61,15.54-7.81,19.89-10.26c-4.34-2.45-12.03-6.65-19.89-10.26L210.17,214.55z"/>
	<path d="M219.78,244.03c-22.36,0-40.56-13.23-40.56-29.48s18.19-29.48,40.56-29.48c10.96,0,21.23,3.11,28.9,8.77l3.51,2.58
		l-42.01,18.13l42.01,18.13l-3.51,2.58C241,240.92,230.74,244.03,219.78,244.03z M219.78,190.06c-19.61,0-35.56,10.98-35.56,24.48
		s15.95,24.48,35.56,24.48c8.16,0,15.84-1.88,22.11-5.35l-44.33-19.14l44.33-19.14C235.62,191.94,227.93,190.06,219.78,190.06z"/>
</g>
<path d="M78.2,266.43c-12.56,0-27.73-7.97-35.03-15.26l-0.2-0.2c-10.42-10.42-22.21-36.9-10.21-48.9c5.72-5.72,12.81-8.37,19.45-7.3
	c5.61,0.91,10.19,4.4,12.91,9.84c2.94,5.88,3.61,10.21,4.1,13.36c0.44,2.8,0.67,4.09,1.76,5.18l0,0c1.09,1.09,2.37,1.33,5.18,1.76
	c3.16,0.49,7.48,1.16,13.36,4.1c5.43,2.72,8.93,7.3,9.84,12.91c1.08,6.64-1.58,13.73-7.3,19.45
	C88.47,264.97,83.57,266.43,78.2,266.43z M49.28,199.54c-4.42,0-9.05,2.14-12.98,6.07c-5.41,5.41-3.53,15.15-1.92,20.48
	c2.38,7.89,7.25,16.47,12.13,21.35l0.2,0.2c4.88,4.88,13.46,9.76,21.35,12.13c5.33,1.61,15.07,3.49,20.48-1.92
	c4.56-4.57,6.71-10.07,5.9-15.11c-0.65-3.98-3.18-7.26-7.14-9.23c-5.19-2.59-8.91-3.17-11.9-3.64c-3.03-0.47-5.65-0.88-7.94-3.17
	l0,0c-2.29-2.29-2.7-4.91-3.17-7.94c-0.46-2.99-1.04-6.71-3.64-11.9c-1.98-3.96-5.26-6.49-9.23-7.14
	C50.71,199.6,49.99,199.54,49.28,199.54z"/>
<path d="M109.25,213.43c-8.08,0-14.98-3.13-18.91-8.59c-3.32-4.61-4.09-10.32-2.17-16.08c2.08-6.24,4.66-9.77,6.55-12.35
	c1.67-2.29,2.41-3.37,2.41-4.91c0-1.54-0.74-2.62-2.41-4.91c-1.88-2.58-4.47-6.11-6.55-12.35c-1.92-5.76-1.15-11.47,2.17-16.08
	c3.94-5.46,10.83-8.59,18.91-8.59c16.97,0,27.36,27.06,27.36,41.79v0.28C136.61,186.37,126.22,213.43,109.25,213.43z M109.25,134.56
	c-6.46,0-11.87,2.38-14.86,6.52c-2.36,3.27-2.88,7.38-1.48,11.58c1.83,5.5,4.05,8.54,5.84,10.98c1.81,2.48,3.38,4.62,3.38,7.86
	c0,3.24-1.56,5.38-3.38,7.86c-1.79,2.44-4.01,5.48-5.84,10.98c-1.4,4.2-0.87,8.31,1.48,11.58c2.98,4.14,8.4,6.52,14.86,6.52
	c7.65,0,13.21-8.22,15.84-13.12c3.9-7.26,6.52-16.77,6.52-23.67v-0.28c0-6.9-2.62-16.42-6.52-23.67
	C122.46,142.78,116.9,134.56,109.25,134.56z"/>
<path d="M134.62,83.87c-16.97,0-27.36-27.06-27.36-41.79v-0.28C107.27,27.06,117.65,0,134.62,0c8.08,0,14.98,3.13,18.91,8.59
	c3.32,4.61,4.09,10.32,2.17,16.08c-2.08,6.24-4.66,9.77-6.55,12.35c-1.67,2.29-2.41,3.37-2.41,4.91c0,1.54,0.74,2.62,2.41,4.91
	c1.88,2.58,4.47,6.11,6.55,12.35c1.92,5.76,1.15,11.47-2.17,16.08C149.6,80.73,142.71,83.87,134.62,83.87z M134.62,5
	c-7.65,0-13.21,8.22-15.84,13.12c-3.9,7.26-6.52,16.77-6.52,23.67v0.28c0,6.9,2.62,16.42,6.52,23.67
	c2.63,4.9,8.19,13.12,15.84,13.12c6.46,0,11.87-2.38,14.86-6.52c2.36-3.27,2.88-7.38,1.48-11.58c-1.83-5.5-4.05-8.54-5.84-10.98
	c-1.81-2.48-3.38-4.62-3.38-7.86c0-3.24,1.56-5.38,3.38-7.86c1.79-2.44,4.01-5.48,5.84-10.98c1.4-4.2,0.87-8.31-1.48-11.58
	C146.5,7.38,141.08,5,134.62,5z"/>
<path d="M256.96,176.85c-8.08,0-14.98-3.13-18.91-8.59c-3.32-4.61-4.09-10.32-2.17-16.08c2.08-6.24,4.66-9.77,6.55-12.35
	c1.67-2.29,2.41-3.37,2.41-4.91c0-1.54-0.74-2.62-2.41-4.91c-1.88-2.58-4.47-6.11-6.55-12.35c-1.92-5.76-1.15-11.47,2.17-16.08
	c3.94-5.46,10.83-8.59,18.91-8.59c16.97,0,27.36,27.06,27.36,41.79v0.28C284.31,149.8,273.93,176.85,256.96,176.85z M256.96,97.99
	c-6.46,0-11.87,2.38-14.86,6.52c-2.36,3.27-2.88,7.38-1.48,11.58c1.83,5.5,4.05,8.54,5.84,10.98c1.81,2.48,3.38,4.62,3.38,7.86
	c0,3.24-1.56,5.38-3.38,7.86c-1.79,2.44-4.01,5.48-5.84,10.98c-1.4,4.2-0.87,8.31,1.48,11.58c2.98,4.14,8.4,6.52,14.86,6.52
	c7.65,0,13.21-8.22,15.84-13.12c3.9-7.26,6.52-16.77,6.52-23.67v-0.28c0-6.9-2.62-16.42-6.52-23.67
	C270.16,106.21,264.61,97.99,256.96,97.99z"/>
</svg>
