
<!-- Generator: Adobe Illustrator 23.0.2, SVG Export Plug-In . SVG Version: 6.00 Build 0)  -->
<svg version="1.1" id="Layer_1" xmlns="http://www.w3.org/2000/svg" xmlns:xlink="http://www.w3.org/1999/xlink" x="0px" y="0px"
	 viewBox="0 0 288.11 246.86" style="enable-background:new 0 0 288.11 246.86;" xml:space="preserve">
<path d="M254.38,109.96c-4.08,0-8.18-1.1-11.87-3.36h0l-90.06-55.13c-5.97-3.66-9.87-9.74-10.7-16.7
	c-0.83-6.96,1.54-13.79,6.5-18.74l9.38-9.38c7.29-7.29,18.6-8.76,27.51-3.56l91.7,53.49c6.13,3.58,10.17,9.67,11.08,16.71
	c0.91,7.04-1.45,13.96-6.47,18.98l-11.02,11.02C266.03,107.69,260.24,109.96,254.38,109.96z M245.11,102.34
	c7.01,4.29,15.97,3.23,21.78-2.58l11.02-11.02c3.92-3.92,5.75-9.31,5.04-14.8c-0.71-5.49-3.86-10.24-8.64-13.03l-91.7-53.49
	c-6.95-4.05-15.77-2.91-21.46,2.78l-9.38,9.38c-3.86,3.86-5.71,9.19-5.07,14.62c0.64,5.43,3.69,10.17,8.35,13.03L245.11,102.34z"/>
<path d="M191.46,172.92c-3.05,0-6.13-0.62-9.07-1.89L81.05,127.18c-6.91-2.99-11.88-9.19-13.29-16.59c-1.41-7.4,0.92-15,6.25-20.32
	l11.32-11.32c6.3-6.3,15.76-8.34,24.1-5.18l51.6,19.52l16.29,58.67c1.7,6.14,6.4,10.77,12.56,12.4c6.11,1.61,12.43-0.07,16.92-4.49
	l12.46-12.46l3.54,3.54l-12.35,12.35c-0.04,0.04-0.08,0.08-0.13,0.13l-2.85,2.85C203.11,170.61,197.34,172.92,191.46,172.92z
	 M101.4,77.3c-4.62,0-9.17,1.81-12.55,5.19L77.54,93.8c-4.22,4.22-5.99,9.99-4.88,15.85s4.9,10.57,10.37,12.94l96.29,41.66
	c-3.23-2.85-5.62-6.61-6.83-10.97l-15.61-56.22l-49.23-18.62C105.62,77.67,103.5,77.3,101.4,77.3z"/>
<path d="M117.51,246.86c-3.64,0-7.31-0.88-10.71-2.69l-94.75-50.45c-6.42-3.42-10.72-9.51-11.79-16.7
	c-1.07-7.2,1.26-14.27,6.41-19.42l15.96-15.96c7.02-7.02,17.66-8.68,26.48-4.13l33.52,17.29l19.96,71.88
	c1.7,6.14,6.4,10.77,12.56,12.4c6.16,1.62,12.53-0.1,17.04-4.61l3.54,3.54l-2.18,2.18C129.15,244.57,123.38,246.86,117.51,246.86z
	 M38.67,139.98c-4.58,0-9.1,1.79-12.51,5.2L10.2,161.14c-4.01,4.01-5.83,9.53-5,15.14c0.84,5.61,4.19,10.36,9.2,13.03l87.15,46.4
	c-1.7-2.25-3-4.85-3.79-7.69l-19.37-69.77l-31.58-16.29C44.22,140.63,41.44,139.98,38.67,139.98z"/>
<path d="M194.48,169.94c-1.95,0-3.92-0.25-5.88-0.77c-7.9-2.08-13.92-8.02-16.11-15.89L140.94,39.64
	c-2.19-7.88,0.05-16.36,5.83-22.14l1.43-1.43c0.01-0.01,0.03-0.03,0.04-0.04l10.47-10.47l3.54,3.54l-10.51,10.51
	c-3.84,3.86-5.67,9.17-5.03,14.58c0.64,5.43,3.69,10.17,8.35,13.03l66.53,40.72l10.41,37.49c2.19,7.88-0.04,16.36-5.83,22.14
	l-15.71,15.71C206.11,167.62,200.41,169.94,194.48,169.94z M148.6,48.53l28.71,103.41c1.7,6.14,6.4,10.77,12.56,12.4
	c6.17,1.62,12.53-0.1,17.04-4.61l15.71-15.71c4.51-4.51,6.25-11.13,4.54-17.27l-9.88-35.59l-64.85-39.69
	C151.04,50.62,149.76,49.63,148.6,48.53z"/>
<path d="M119.75,244.68c-1.95,0-3.92-0.25-5.88-0.77c-7.9-2.08-13.92-8.02-16.11-15.89L66.21,114.37
	c-2.19-7.88,0.04-16.36,5.83-22.14L74,90.27l3.54,3.54c-4.21,4.22-5.99,9.99-4.87,15.85c1.12,5.86,4.9,10.57,10.37,12.94
	l59.88,25.91l14.34,51.66c2.19,7.88-0.05,16.36-5.83,22.14L135.72,238C131.37,242.35,125.67,244.68,119.75,244.68z M73.48,121.86
	l29.1,104.82c1.7,6.14,6.4,10.77,12.56,12.4c6.16,1.62,12.53-0.1,17.04-4.61l15.71-15.71c4.51-4.51,6.25-11.13,4.54-17.27
	l-13.7-49.35l-57.68-24.96C78.14,125.92,75.58,124.1,73.48,121.86z"/>
</svg>
