<?xml version="1.0" encoding="UTF-8"?>
<svg width="148px" height="148px" viewBox="0 0 148 148" version="1.1" xmlns="http://www.w3.org/2000/svg" xmlns:xlink="http://www.w3.org/1999/xlink">
    <!-- Generator: Sketch 56.3 (81716) - https://sketch.com -->
    <title>logo</title>
    <desc>Created with Sketch.</desc>
    <defs>
        <polygon id="path-1" points="0 0 148 0 148 148 0 148"></polygon>
    </defs>
    <g id="DA" stroke="none" stroke-width="1" fill="none" fill-rule="evenodd">
        <g id="01-Home" transform="translate(-1130.000000, -1391.000000)">
            <g id="CONTENT" transform="translate(0.000000, 801.000000)">
                <g id="intro">
                    <g id="logo" transform="translate(1130.000000, 590.000000)">
                        <g id="Group-3">
                            <mask id="mask-2" fill="white">
                                <use xlink:href="#path-1"></use>
                            </mask>
                            <g id="Clip-2"></g>
                            <path d="M103.97401,72.372079 L110.310538,65.5358411 L116.556053,72.4047061 L103.97401,72.372079 Z M122.076903,122.075186 C109.944771,134.205602 94.0364792,141.180934 77.0034112,141.915903 L77.0034112,113.944167 C82.6444666,113.499408 88.1687513,111.83886 93.2431253,108.974543 C102.407908,103.800571 109.010605,95.3673218 111.833708,85.2288771 C112.457058,82.9913443 112.876059,80.7040123 113.09758,78.4063769 L130.173578,78.4527417 L110.355185,56.6475298 L90.2397141,78.3462743 L107.056413,78.3892047 C106.855499,80.1493514 106.522359,81.8991948 106.044973,83.616411 C103.651173,92.2076439 98.0564825,99.354698 90.2895134,103.738751 C86.1321328,106.084468 81.6175713,107.458241 77.0034112,107.89098 L77.0034112,6.0858144 C113.104449,7.66565335 141.989743,37.5177407 141.989743,74 C141.989743,92.1612791 134.916529,109.232126 122.076903,122.075186 L122.076903,122.075186 Z M70.9931543,35.367786 C54.576567,36.5732718 40.3872091,48.033973 35.9155779,64.0916622 C33.0924744,74.2318242 34.3872555,84.86311 39.561228,94.0278932 C44.7334834,103.192676 53.1667324,109.795373 63.3051772,112.618476 C65.8483744,113.325969 68.4207644,113.767294 70.9931543,113.959622 L70.9931543,141.914186 C34.8955515,140.332629 6.01025689,110.480542 6.01025689,73.9982828 C6.01025689,55.8387209 13.0817534,38.7644397 25.9230966,25.9230966 C38.0535122,13.7926809 53.9618035,6.81906574 70.9931543,6.08237997 L70.9931543,35.367786 Z M70.9931543,107.918455 C68.9599703,107.738148 66.9267863,107.387836 64.9176432,106.828023 C56.3246931,104.435941 49.1793563,98.8412503 44.7953032,91.0742812 C40.4095329,83.3073121 39.3139489,74.2970784 41.7060311,65.7041283 C45.4547142,52.2360012 57.2674448,42.5749426 70.9931543,41.3866289 L70.9931543,107.918455 Z M73.9982828,0 C54.2331237,0 35.6494094,7.69656325 21.6747035,21.6729863 C7.69828046,35.6494094 0,54.2331237 0,73.9982828 C0,114.801058 33.1972246,147.998283 74,148 C93.7668763,148 112.348873,140.30172 126.325296,126.323579 C140.30172,112.348873 148,93.7651591 148,74 C148,33.1972246 114.802775,0 73.9982828,0 L73.9982828,0 Z" id="Fill-1" fill="#231F20" mask="url(#mask-2)"></path>
                        </g>
                    </g>
                </g>
            </g>
        </g>
    </g>
</svg>