
<!-- Generator: Adobe Illustrator 23.0.2, SVG Export Plug-In . SVG Version: 6.00 Build 0)  -->
<svg version="1.1" id="Layer_1" xmlns="http://www.w3.org/2000/svg" xmlns:xlink="http://www.w3.org/1999/xlink" x="0px" y="0px"
	 viewBox="0 0 229.32 329.52" style="enable-background:new 0 0 229.32 329.52;" xml:space="preserve">
<style type="text/css">
	.st0{fill:#19181C;}
</style>
<path class="st0" d="M195.17,43.71c2.69,13.53,8.7,33.19,18.23,32.31v0c1.04-0.1,1.65-0.36,1.81-0.79
	C216.73,71.15,206.78,56.87,195.17,43.71 M212.72,81.34c-18.26,0-23.64-40.87-24.2-45.62l-0.93-7.87l5.47,5.74
	c7.31,7.66,30.86,33.45,27.11,43.5c-0.64,1.71-2.24,3.82-6.27,4.2C213.5,81.32,213.1,81.34,212.72,81.34"/>
<path class="st0" d="M182.57,40.45c4.38,11.14,13.25,30.45,23.85,35.46c2.86,1.36,5.57,1.48,8.27,0.41c1.35-0.54,1.41-1.12,1.44-1.4
	C216.85,68.85,198.71,52.62,182.57,40.45 M211.06,82.33c-2.29,0-4.6-0.55-6.91-1.64c-17.12-8.11-29.04-45.12-29.54-46.69l-2.38-7.49
	l6.42,4.53c7.4,5.23,44.22,31.92,42.73,44.51c-0.21,1.82-1.21,4.28-4.75,5.69C214.8,81.96,212.93,82.33,211.06,82.33"/>
<path class="st0" d="M156.19,108.98c-0.86,9.72-0.96,22.81,3.04,27.71c0.89,1.08,1.89,1.61,3.15,1.65c1.09,0.06,1.45-0.36,1.59-0.58
	C166.1,134.38,161.97,121.49,156.19,108.98 M162.55,143.64c-0.12,0-0.25,0-0.37-0.01c-2.77-0.1-5.21-1.34-7.05-3.59
	c-7.94-9.71-3.63-37.45-3.1-40.58l1.28-7.74l3.67,6.93c2.88,5.46,16.99,33.13,11.47,41.93
	C167.56,141.99,165.83,143.64,162.55,143.64"/>
<path class="st0" d="M145.85,95.8c1.73,17,6.64,42.24,17.5,42.24h0c0.63,0,0.7-0.14,0.74-0.22
	C166.32,133.73,157.06,114.38,145.85,95.8 M163.36,143.33c-21.08,0-23.34-51.93-23.54-57.84l-0.3-9.49l5.16,7.97
	c6.98,10.77,29.34,46.68,24.07,56.38C167.71,142.27,165.79,143.32,163.36,143.33L163.36,143.33z"/>
<path class="st0" d="M157.28,167.14l-4.08-3.37c3.2-3.87,11.57-16.15,8.28-21.57l4.51-2.75
	C171.83,149.05,158.79,165.32,157.28,167.14"/>
<path class="st0" d="M125.76,123.56c1.65,9.62,4.88,22.3,10.01,26.02c1.13,0.82,2.25,1.09,3.46,0.8c1.18-0.26,1.32-0.72,1.39-0.96
	C141.82,145.6,134.54,134.18,125.76,123.56 M138.31,155.78c-1.98,0-3.9-0.64-5.65-1.91c-10.16-7.37-13.05-35.29-13.35-38.45
	l-0.73-7.81l5.31,5.77c4.18,4.55,24.88,27.7,21.78,37.62c-0.51,1.65-1.85,3.77-5.28,4.55C139.7,155.7,139,155.78,138.31,155.78"/>
<path class="st0" d="M138.29,178.34l-4.8-2.22c2.1-4.56,7.07-18.57,2.5-22.96l3.67-3.81C147.75,157.13,139.29,176.19,138.29,178.34"
	/>
<path class="st0" d="M219.79,17.51c-2.38,12.46-3.2,24.74-0.58,27.28c0.16,0.16,0.42,0.42,1.43,0.13c1.09-0.31,1.85-0.99,2.4-2.13
	C225.53,37.59,222.68,26.11,219.79,17.51 M219.89,50.33c-1.67,0-3.16-0.59-4.35-1.74c-7.08-6.86-0.39-35.35,1.02-40.99L218.46,0
	l3.09,7.21c1.18,2.75,11.36,27.16,6.26,37.87c-1.19,2.51-3.17,4.22-5.73,4.94C221.34,50.23,220.59,50.33,219.89,50.33"/>
<path class="st0" d="M163.66,81.29c4.45,11.03,12.17,26.4,20.41,30.2c2.25,1.04,4.37,1.12,6.51,0.23c0.81-0.34,0.84-0.63,0.86-0.83
	C191.98,106.29,178.47,93.01,163.66,81.29 M187.63,117.63c-1.91,0-3.85-0.45-5.78-1.34c-15.04-6.94-25.84-40.36-26.29-41.78
	l-2.47-7.75l6.55,4.82c6.42,4.72,38.37,28.81,37.05,39.95c-0.27,2.29-1.72,4.09-4.07,5.08
	C190.97,117.28,189.31,117.63,187.63,117.63"/>
<path class="st0" d="M165.53,60.43c2.65,20.67,9.72,52.68,23.56,52.68c0.12,0,0.25,0,0.37-0.01c1.07-0.04,1.24-0.39,1.34-0.6
	C193.68,106.65,179.18,80.93,165.53,60.43 M189.07,118.4c-24.3,0-29.37-60.85-29.87-67.83l-0.68-9.47l5.47,7.76
	c6.3,8.93,37.42,54.06,31.54,65.99c-1.07,2.17-3.16,3.43-5.87,3.54C189.47,118.39,189.27,118.4,189.07,118.4"/>
<path class="st0" d="M190.49,140.63l-4.66-2.5c2.37-4.43,8.18-18.1,3.88-22.77l3.89-3.58C201.21,120.04,191.61,138.55,190.49,140.63
	"/>
<path class="st0" d="M57.41,105.22c-0.07,10.59,0.98,25.22,5.87,30.25c1.09,1.12,2.26,1.6,3.67,1.54c1.41-0.07,1.68-0.59,1.82-0.88
	C70.99,131.82,64.4,117.33,57.41,105.22 M66.7,142.3c-2.72,0-5.2-1.08-7.21-3.15c-9.34-9.6-7.28-39.63-7.01-43.02l0.61-7.82
	l4.25,6.59c3.58,5.56,21.2,33.8,16.15,43.64c-0.83,1.61-2.58,3.56-6.26,3.74l-0.13-2.64l0.13,2.64
	C67.04,142.3,66.87,142.3,66.7,142.3"/>
<path class="st0" d="M44.96,91.97c3.37,18.12,11.14,45.62,23.03,44.62c0.79-0.07,0.88-0.29,0.94-0.42
	C70.98,131.47,58.93,111.08,44.96,91.97 M67.29,141.9c-21.49,0-28.45-53.44-29.19-59.64l-1.12-9.43l5.83,7.5
	c8.45,10.87,35.67,47.17,30.96,57.95c-0.91,2.09-2.8,3.35-5.33,3.57C68.06,141.89,67.67,141.9,67.29,141.9"/>
<path class="st0" d="M75.6,67.37c-2.33,8.76-4.44,20.4-1.63,25.44c0.61,1.1,1.42,1.73,2.53,1.97c1.01,0.22,1.26-0.06,1.42-0.22
	C80.37,91.86,78.77,79.65,75.6,67.37 M77.13,100.15c-0.56,0-1.15-0.07-1.75-0.19c-2.6-0.57-4.68-2.14-6.03-4.57
	c-5.77-10.36,2.84-35.37,3.85-38.19l2.62-7.39l2.38,7.47c1.76,5.54,10.26,33.55,3.63,40.84C80.61,99.45,78.98,100.15,77.13,100.15"
	/>
<path class="st0" d="M40.34,155.6c5.9,6.69,14.28,14.62,20.56,15.33c1.78,0.18,3.17-0.21,4.4-1.28c0.22-0.19,0.26-0.29,0.26-0.29
	C65.41,166.8,54.22,160.82,40.34,155.6 M61.74,176.26c-0.47,0-0.95-0.03-1.44-0.08c-12.82-1.44-28.3-22.23-30.02-24.59l-4.79-6.58
	l7.74,2.51c8.35,2.7,35.71,12.18,37.49,20.81c0.4,1.97-0.29,3.85-1.94,5.3C66.77,175.38,64.41,176.26,61.74,176.26"/>
<path class="st0" d="M36.28,140.42c8.01,16.1,20.13,33.66,28.72,30.41c0.36-0.14,0.46-0.25,0.46-0.26
	C66.71,167.42,53.71,154.18,36.28,140.42 M62.83,176.52c-17.21,0-33.82-38.84-35.79-43.59l-3.63-8.77l7.64,5.63
	c9.66,7.12,41.06,31.17,39.64,41.47c-0.29,2.09-1.65,3.69-3.83,4.52C65.52,176.28,64.18,176.52,62.83,176.52"/>
<path class="st0" d="M5.19,329.52L0,328.54c17.45-93.12,73.26-130.7,73.82-131.06l0.75-0.34c137.23-37.66,149.4-122.2,149.5-123.05
	l5.25,0.65c-0.11,0.88-12.45,88.66-152.92,127.38C71.87,205.29,21.52,242.41,5.19,329.52"/>
<path class="st0" d="M214.79,110.9l-5.1-1.38c0.03-0.14,3.65-14.15-1.99-32.64l5.06-1.54C218.86,95.37,214.96,110.28,214.79,110.9"
	/>
<path class="st0" d="M223.47,74.4c-1.32-22.1-4.65-27.35-4.68-27.41l4.24-3.16c0.71,0.91,4.31,6.66,5.72,30.25L223.47,74.4z"/>
<path class="st0" d="M68.61,208.2l-4.54-2.71c26.66-44.75,12.15-104.52,12-105.12l5.13-1.28C81.84,101.62,96.38,161.59,68.61,208.2"
	/>
<path class="st0" d="M84.65,155.97l-5.27-0.49c-0.53-1.35-7.16-8.67-13.01-14.37l3.69-3.79C85.03,151.9,84.75,154.86,84.65,155.97"
	/>
<path class="st0" d="M75.13,195.25l-4.78-2.26c2.57-5.46-3.77-14.83-6.44-17.98l4.03-3.42C69.15,173.02,79.61,185.77,75.13,195.25"
	/>
</svg>
