
<!-- Generator: Adobe Illustrator 16.0.0, SVG Export Plug-In . SVG Version: 6.00 Build 0)  -->
<!DOCTYPE svg PUBLIC "-//W3C//DTD SVG 1.1//EN" "http://www.w3.org/Graphics/SVG/1.1/DTD/svg11.dtd">
<svg version="1.1" id="Layer_1" xmlns="http://www.w3.org/2000/svg" xmlns:xlink="http://www.w3.org/1999/xlink" x="0px" y="0px"
	 width="148px" height="148px" viewBox="0 0 148 148" enable-background="new 0 0 148 148" xml:space="preserve">
<title>logo</title>
<desc>Created with Sketch.</desc>
<g id="DA">
	<g id="_x30_1-Home" transform="translate(-1130.000000, -1391.000000)">
		<g id="CONTENT" transform="translate(0.000000, 801.000000)">
			<g id="intro">
				<g id="logo" transform="translate(1130.000000, 590.000000)">
					<g id="Group-3">
						<g id="Clip-2">
						</g>
						<defs>
							<filter id="Adobe_OpacityMaskFilter" filterUnits="userSpaceOnUse" x="0" y="0" width="148" height="148">
								<feColorMatrix  type="matrix" values="1 0 0 0 0  0 1 0 0 0  0 0 1 0 0  0 0 0 1 0"/>
							</filter>
						</defs>
						<mask maskUnits="userSpaceOnUse" x="0" y="0" width="148" height="148" id="mask-2">
							<g filter="url(#Adobe_OpacityMaskFilter)">
								<polygon id="path-1" fill="#FFFFFF" points="0,0 148,0 148,148 0,148 								"/>
							</g>
						</mask>
						<path id="Fill-1" mask="url(#mask-2)" fill="#FFFFFF" d="M103.975,72.372l6.336-6.836l6.246,6.869L103.975,72.372z
							 M122.077,122.075c-12.132,12.13-28.04,19.106-45.073,19.841v-27.972c5.641-0.444,11.165-2.105,16.239-4.97
							c9.165-5.174,15.768-13.607,18.591-23.746c0.623-2.237,1.042-4.524,1.264-6.822l17.076,0.047l-19.818-21.806L90.24,78.346
							l16.816,0.043c-0.201,1.761-0.534,3.511-1.012,5.228c-2.394,8.591-7.988,15.738-15.756,20.122
							c-4.156,2.346-8.672,3.72-13.285,4.152V6.086C113.104,7.666,141.99,37.518,141.99,74
							C141.99,92.161,134.916,109.232,122.077,122.075L122.077,122.075z M70.993,35.368c-16.417,1.206-30.606,12.667-35.078,28.724
							c-2.823,10.14-1.528,20.771,3.646,29.936c5.172,9.166,13.606,15.768,23.744,18.592c2.543,0.707,5.116,1.148,7.688,1.34v27.955
							C34.896,140.332,6.01,110.48,6.01,73.998c0-18.159,7.071-35.233,19.913-48.075c12.131-12.13,28.039-19.104,45.07-19.84V35.368
							z M70.993,107.918c-2.033-0.18-4.066-0.53-6.076-1.09c-8.593-2.393-15.738-7.986-20.122-15.754
							c-4.386-7.768-5.481-16.777-3.089-25.37c3.749-13.468,15.562-23.129,29.287-24.317V107.918z M73.998,0
							C54.233,0,35.649,7.697,21.675,21.673C7.698,35.649,0,54.233,0,73.998c0,40.803,33.197,74,74,74.002
							c19.768,0,38.349-7.698,52.325-21.676C140.302,112.349,148,93.766,148,74C148,33.197,114.803,0,73.998,0L73.998,0z"/>
					</g>
				</g>
			</g>
		</g>
	</g>
</g>
</svg>
